Raita 0: control track
MetaMessage('track_name', name='control track', time=0)
MetaMessage('text', text='creator: ', time=0)
MetaMessage('text', text='GNU LilyPond 2.11.49          ', time=0)
MetaMessage('time_signature', numerator=4, denominator=4, clocks_per_click=18, notated_32nd_notes_per_beat=8, time=0)
MetaMessage('set_tempo', tempo=1000000, time=0)
MetaMessage('end_of_track', time=0)
Raita 1: up
MetaMessage('track_name', name='up', time=0)
MetaMessage('key_signature', key='Dm', time=0)
note_on channel=1 note=74 velocity=127 time=96
note_off channel=1 note=74 velocity=64 time=96
note_on channel=1 note=73 velocity=127 time=0
note_off channel=1 note=73 velocity=64 time=96
note_on channel=1 note=74 velocity=127 time=0
note_off channel=1 note=74 velocity=64 time=96
note_on channel=1 note=69 velocity=127 time=0
note_off channel=1 note=69 velocity=64 time=192
note_on channel=1 note=77 velocity=127 time=0
note_off channel=1 note=77 velocity=64 time=288
note_on channel=1 note=76 velocity=127 time=0
note_off channel=1 note=76 velocity=64 time=96
note_on channel=1 note=74 velocity=127 time=0
note_off channel=1 note=74 velocity=64 time=96
note_on channel=1 note=76 velocity=127 time=0
note_off channel=1 note=76 velocity=64 time=96
note_on channel=1 note=69 velocity=127 time=0
note_off channel=1 note=69 velocity=64 time=192
note_on channel=1 note=79 velocity=127 time=0
note_off channel=1 note=79 velocity=64 time=288
note_on channel=1 note=77 velocity=127 time=0
note_on channel=1 note=69 velocity=127 time=0
note_off channel=1 note=77 velocity=64 time=96
note_off channel=1 note=69 velocity=64 time=0
note_on channel=1 note=76 velocity=127 time=0
note_on channel=1 note=68 velocity=127 time=0
note_off channel=1 note=76 velocity=64 time=96
note_off channel=1 note=68 velocity=64 time=0
note_on channel=1 note=74 velocity=127 time=0
note_on channel=1 note=69 velocity=127 time=0
note_off channel=1 note=74 velocity=64 time=96
note_off channel=1 note=69 velocity=64 time=0
note_on channel=1 note=81 velocity=127 time=0
note_on channel=1 note=64 velocity=127 time=0
note_off channel=1 note=64 velocity=64 time=192
note_on channel=1 note=72 velocity=127 time=0
note_off channel=1 note=81 velocity=64 time=288
note_off channel=1 note=72 velocity=64 time=0
note_on channel=1 note=71 velocity=127 time=0
note_on channel=1 note=80 velocity=127 time=0
note_off channel=1 note=71 velocity=64 time=96
note_off channel=1 note=80 velocity=64 time=0
note_on channel=1 note=78 velocity=127 time=0
note_on channel=1 note=69 velocity=127 time=0
note_off channel=1 note=78 velocity=64 time=96
note_off channel=1 note=69 velocity=64 time=0
note_on channel=1 note=80 velocity=127 time=0
note_on channel=1 note=71 velocity=127 time=0
note_off channel=1 note=80 velocity=64 time=96
note_off channel=1 note=71 velocity=64 time=0
note_on channel=1 note=80 velocity=127 time=0
note_on channel=1 note=64 velocity=127 time=0
note_off channel=1 note=64 velocity=64 time=192
note_on channel=1 note=74 velocity=127 time=0
note_off channel=1 note=80 velocity=64 time=96
note_on channel=1 note=81 velocity=127 time=0
note_off channel=1 note=81 velocity=64 time=96
note_on channel=1 note=81 velocity=127 time=0
note_off channel=1 note=74 velocity=64 time=96
note_on channel=1 note=72 velocity=127 time=0
note_off channel=1 note=72 velocity=64 time=96
note_on channel=1 note=71 velocity=127 time=0
note_off channel=1 note=71 velocity=64 time=96
note_on channel=1 note=72 velocity=127 time=0
note_off channel=1 note=72 velocity=64 time=96
note_on channel=1 note=77 velocity=127 time=0
note_off channel=1 note=81 velocity=64 time=96
note_on channel=1 note=74 velocity=127 time=0
note_off channel=1 note=74 velocity=64 time=96
note_on channel=1 note=73 velocity=127 time=0
note_off channel=1 note=73 velocity=64 time=96
note_on channel=1 note=74 velocity=127 time=0
note_off channel=1 note=74 velocity=64 time=96
note_on channel=1 note=79 velocity=127 time=0
note_off channel=1 note=77 velocity=64 time=96
note_on channel=1 note=71 velocity=127 time=0
note_off channel=1 note=71 velocity=64 time=96
note_on channel=1 note=69 velocity=127 time=0
note_off channel=1 note=69 velocity=64 time=96
note_on channel=1 note=71 velocity=127 time=0
note_off channel=1 note=71 velocity=64 time=96
note_on channel=1 note=76 velocity=127 time=0
note_off channel=1 note=79 velocity=64 time=96
note_on channel=1 note=73 velocity=127 time=0
note_off channel=1 note=73 velocity=64 time=96
note_on channel=1 note=71 velocity=127 time=0
note_off channel=1 note=71 velocity=64 time=96
note_on channel=1 note=73 velocity=127 time=0
note_off channel=1 note=73 velocity=64 time=96
note_on channel=1 note=77 velocity=127 time=0
note_off channel=1 note=76 velocity=64 time=192
note_on channel=1 note=69 velocity=127 time=0
note_off channel=1 note=69 velocity=64 time=192
note_on channel=1 note=74 velocity=127 time=0
note_off channel=1 note=74 velocity=64 time=96
note_on channel=1 note=76 velocity=127 time=0
note_off channel=1 note=77 velocity=64 time=96
note_off channel=1 note=76 velocity=64 time=0
note_on channel=1 note=81 velocity=127 time=0
note_on channel=1 note=74 velocity=127 time=0
note_off channel=1 note=74 velocity=64 time=96
note_on channel=1 note=72 velocity=127 time=0
note_off channel=1 note=81 velocity=64 time=96
note_off channel=1 note=72 velocity=64 time=0
note_on channel=1 note=79 velocity=127 time=0
note_on channel=1 note=71 velocity=127 time=0
note_off channel=1 note=71 velocity=64 time=288
note_on channel=1 note=73 velocity=127 time=0
note_off channel=1 note=73 velocity=64 time=96
note_on channel=1 note=73 velocity=127 time=0
note_off channel=1 note=79 velocity=64 time=96
note_on channel=1 note=77 velocity=127 time=0
note_off channel=1 note=77 velocity=64 time=96
note_on channel=1 note=76 velocity=127 time=0
note_off channel=1 note=76 velocity=64 time=96
note_on channel=1 note=77 velocity=127 time=0
note_off channel=1 note=73 velocity=64 time=96
note_off channel=1 note=77 velocity=64 time=0
note_on channel=1 note=74 velocity=127 time=0
note_on channel=1 note=73 velocity=127 time=192
note_off channel=1 note=73 velocity=64 time=96
note_off channel=1 note=74 velocity=64 time=96
note_on channel=1 note=67 velocity=127 time=0
note_on channel=1 note=82 velocity=127 time=96
note_off channel=1 note=82 velocity=64 time=96
note_on channel=1 note=81 velocity=127 time=0
note_off channel=1 note=81 velocity=64 time=96
note_on channel=1 note=82 velocity=127 time=0
note_off channel=1 note=82 velocity=64 time=96
note_on channel=1 note=76 velocity=127 time=0
note_off channel=1 note=67 velocity=64 time=96
note_on channel=1 note=72 velocity=127 time=0
note_off channel=1 note=72 velocity=64 time=96
note_on channel=1 note=70 velocity=127 time=0
note_off channel=1 note=70 velocity=64 time=96
note_on channel=1 note=72 velocity=127 time=0
note_off channel=1 note=72 velocity=64 time=96
note_on channel=1 note=65 velocity=127 time=0
note_off channel=1 note=76 velocity=64 time=96
note_on channel=1 note=81 velocity=127 time=0
note_off channel=1 note=81 velocity=64 time=96
note_on channel=1 note=79 velocity=127 time=0
note_off channel=1 note=79 velocity=64 time=96
note_on channel=1 note=81 velocity=127 time=0
note_off channel=1 note=81 velocity=64 time=96
note_on channel=1 note=74 velocity=127 time=0
note_off channel=1 note=65 velocity=64 time=96
note_on channel=1 note=70 velocity=127 time=0
note_off channel=1 note=70 velocity=64 time=96
note_on channel=1 note=69 velocity=127 time=0
note_off channel=1 note=69 velocity=64 time=96
note_on channel=1 note=72 velocity=127 time=0
note_off channel=1 note=72 velocity=64 time=96
note_on channel=1 note=70 velocity=127 time=0
note_off channel=1 note=74 velocity=64 time=96
note_on channel=1 note=74 velocity=127 time=0
note_off channel=1 note=74 velocity=64 time=96
note_on channel=1 note=76 velocity=127 time=0
note_off channel=1 note=76 velocity=64 time=96
note_on channel=1 note=77 velocity=127 time=0
note_off channel=1 note=77 velocity=64 time=96
note_on channel=1 note=79 velocity=127 time=0
note_off channel=1 note=70 velocity=64 time=96
note_on channel=1 note=72 velocity=127 time=0
note_off channel=1 note=72 velocity=64 time=96
note_on channel=1 note=70 velocity=127 time=0
note_off channel=1 note=70 velocity=64 time=96
note_on channel=1 note=69 velocity=127 time=0
note_off channel=1 note=69 velocity=64 time=96
note_on channel=1 note=70 velocity=127 time=0
note_off channel=1 note=79 velocity=64 time=96
note_off channel=1 note=70 velocity=64 time=0
note_on channel=1 note=77 velocity=127 time=0
note_on channel=1 note=69 velocity=127 time=0
note_off channel=1 note=77 velocity=64 time=96
note_off channel=1 note=69 velocity=64 time=0
note_on channel=1 note=76 velocity=127 time=0
note_on channel=1 note=67 velocity=127 time=0
note_off channel=1 note=76 velocity=64 time=96
note_off channel=1 note=67 velocity=64 time=0
note_on channel=1 note=74 velocity=127 time=0
note_on channel=1 note=65 velocity=127 time=0
note_off channel=1 note=74 velocity=64 time=96
note_off channel=1 note=65 velocity=64 time=0
note_on channel=1 note=72 velocity=127 time=0
note_on channel=1 note=64 velocity=127 time=0
note_off channel=1 note=64 velocity=64 time=192
note_on channel=1 note=70 velocity=127 time=0
note_off channel=1 note=70 velocity=64 time=288
note_on channel=1 note=69 velocity=127 time=0
note_off channel=1 note=69 velocity=64 time=96
note_on channel=1 note=67 velocity=127 time=0
note_off channel=1 note=67 velocity=64 time=96
note_on channel=1 note=69 velocity=127 time=0
note_off channel=1 note=69 velocity=64 time=96
note_on channel=1 note=65 velocity=127 time=0
note_off channel=1 note=72 velocity=64 time=96
note_on channel=1 note=70 velocity=127 time=0
note_off channel=1 note=70 velocity=64 time=96
note_on channel=1 note=69 velocity=127 time=0
note_off channel=1 note=69 velocity=64 time=96
note_on channel=1 note=70 velocity=127 time=0
note_off channel=1 note=70 velocity=64 time=96
note_on channel=1 note=67 velocity=127 time=0
note_off channel=1 note=67 velocity=64 time=96
note_on channel=1 note=74 velocity=127 time=0
note_off channel=1 note=74 velocity=64 time=96
note_on channel=1 note=72 velocity=127 time=0
note_off channel=1 note=72 velocity=64 time=96
note_on channel=1 note=74 velocity=127 time=0
note_off channel=1 note=74 velocity=64 time=96
note_on channel=1 note=67 velocity=127 time=0
note_off channel=1 note=67 velocity=64 time=96
note_on channel=1 note=70 velocity=127 time=0
note_off channel=1 note=70 velocity=64 time=96
note_on channel=1 note=69 velocity=127 time=0
note_off channel=1 note=69 velocity=64 time=96
note_on channel=1 note=70 velocity=127 time=0
note_off channel=1 note=65 velocity=64 time=96
note_on channel=1 note=64 velocity=127 time=0
note_off channel=1 note=70 velocity=64 time=96
note_on channel=1 note=72 velocity=127 time=0
note_off channel=1 note=72 velocity=64 time=96
note_on channel=1 note=70 velocity=127 time=0
note_off channel=1 note=70 velocity=64 time=96
note_on channel=1 note=72 velocity=127 time=0
note_off channel=1 note=64 velocity=64 time=96
note_off channel=1 note=72 velocity=64 time=0
note_on channel=1 note=69 velocity=127 time=0
note_on channel=1 note=65 velocity=127 time=96
note_off channel=1 note=65 velocity=64 time=96
note_on channel=1 note=64 velocity=127 time=0
note_off channel=1 note=64 velocity=64 time=96
note_on channel=1 note=65 velocity=127 time=0
note_off channel=1 note=69 velocity=64 time=96
note_off channel=1 note=65 velocity=64 time=0
note_on channel=1 note=60 velocity=127 time=0
note_off channel=1 note=60 velocity=64 time=192
note_on channel=1 note=77 velocity=127 time=0
note_on channel=1 note=69 velocity=127 time=0
note_off channel=1 note=77 velocity=64 time=288
note_off channel=1 note=69 velocity=64 time=0
note_on channel=1 note=76 velocity=127 time=0
note_on channel=1 note=67 velocity=127 time=0
note_off channel=1 note=67 velocity=64 time=96
note_on channel=1 note=65 velocity=127 time=0
note_off channel=1 note=65 velocity=64 time=96
note_on channel=1 note=67 velocity=127 time=0
note_off channel=1 note=76 velocity=64 time=96
note_off channel=1 note=67 velocity=64 time=0
note_on channel=1 note=60 velocity=127 time=0
note_off channel=1 note=60 velocity=64 time=192
note_on channel=1 note=79 velocity=127 time=0
note_on channel=1 note=70 velocity=127 time=0
note_off channel=1 note=79 velocity=64 time=288
note_off channel=1 note=70 velocity=64 time=0
note_on channel=1 note=77 velocity=127 time=0
note_on channel=1 note=69 velocity=127 time=0
note_off channel=1 note=77 velocity=64 time=96
note_on channel=1 note=76 velocity=127 time=0
note_off channel=1 note=76 velocity=64 time=96
note_on channel=1 note=77 velocity=127 time=0
note_off channel=1 note=69 velocity=64 time=96
note_off channel=1 note=77 velocity=64 time=0
note_on channel=1 note=72 velocity=127 time=0
note_off channel=1 note=72 velocity=64 time=192
note_on channel=1 note=81 velocity=127 time=0
note_on channel=1 note=77 velocity=127 time=0
note_off channel=1 note=81 velocity=64 time=288
note_off channel=1 note=77 velocity=64 time=0
note_on channel=1 note=79 velocity=127 time=0
note_on channel=1 note=76 velocity=127 time=0
note_off channel=1 note=79 velocity=64 time=96
note_on channel=1 note=77 velocity=127 time=0
note_off channel=1 note=77 velocity=64 time=96
note_on channel=1 note=79 velocity=127 time=0
note_off channel=1 note=76 velocity=64 time=96
note_off channel=1 note=79 velocity=64 time=0
note_on channel=1 note=72 velocity=127 time=0
note_off channel=1 note=72 velocity=64 time=192
note_on channel=1 note=82 velocity=127 time=0
note_on channel=1 note=79 velocity=127 time=0
note_off channel=1 note=82 velocity=64 time=288
note_off channel=1 note=79 velocity=64 time=0
note_on channel=1 note=81 velocity=127 time=0
note_on channel=1 note=77 velocity=127 time=0
note_off channel=1 note=77 velocity=64 time=384
note_on channel=1 note=76 velocity=127 time=0
note_off channel=1 note=76 velocity=64 time=96
note_on channel=1 note=74 velocity=127 time=0
note_off channel=1 note=74 velocity=64 time=96
note_on channel=1 note=72 velocity=127 time=0
note_off channel=1 note=72 velocity=64 time=96
note_on channel=1 note=70 velocity=127 time=0
note_off channel=1 note=81 velocity=64 time=96
note_on channel=1 note=74 velocity=127 time=0
note_off channel=1 note=74 velocity=64 time=96
note_on channel=1 note=73 velocity=127 time=0
note_off channel=1 note=73 velocity=64 time=96
note_on channel=1 note=74 velocity=127 time=0
note_off channel=1 note=74 velocity=64 time=96
note_on channel=1 note=79 velocity=127 time=0
note_off channel=1 note=70 velocity=64 time=96
note_on channel=1 note=69 velocity=127 time=0
note_off channel=1 note=69 velocity=64 time=96
note_on channel=1 note=70 velocity=127 time=0
note_off channel=1 note=70 velocity=64 time=96
note_on channel=1 note=67 velocity=127 time=0
note_off channel=1 note=67 velocity=64 time=96
note_on channel=1 note=73 velocity=127 time=0
note_off channel=1 note=79 velocity=64 time=96
note_on channel=1 note=77 velocity=127 time=0
note_off channel=1 note=77 velocity=64 time=96
note_on channel=1 note=76 velocity=127 time=0
note_off channel=1 note=76 velocity=64 time=96
note_on channel=1 note=79 velocity=127 time=0
note_off channel=1 note=73 velocity=64 time=96
note_off channel=1 note=79 velocity=64 time=0
note_on channel=1 note=77 velocity=127 time=0
note_on channel=1 note=74 velocity=127 time=0
note_off channel=1 note=74 velocity=64 time=96
note_on channel=1 note=70 velocity=127 time=0
note_off channel=1 note=70 velocity=64 time=96
note_on channel=1 note=69 velocity=127 time=0
note_off channel=1 note=69 velocity=64 time=96
note_on channel=1 note=70 velocity=127 time=0
note_off channel=1 note=70 velocity=64 time=96
note_on channel=1 note=68 velocity=127 time=0
note_off channel=1 note=77 velocity=64 time=96
note_on channel=1 note=76 velocity=127 time=0
note_off channel=1 note=68 velocity=64 time=96
note_off channel=1 note=76 velocity=64 time=0
note_on channel=1 note=74 velocity=127 time=0
note_on channel=1 note=69 velocity=127 time=0
note_off channel=1 note=74 velocity=64 time=96
note_on channel=1 note=76 velocity=127 time=0
note_off channel=1 note=69 velocity=64 time=96
note_off channel=1 note=76 velocity=64 time=0
note_on channel=1 note=66 velocity=127 time=0
note_on channel=1 note=69 velocity=127 time=0
note_off channel=1 note=66 velocity=64 time=192
note_off channel=1 note=69 velocity=64 time=0
note_on channel=1 note=74 velocity=127 time=0
note_on channel=1 note=65 velocity=127 time=0
note_off channel=1 note=65 velocity=64 time=192
note_on channel=1 note=64 velocity=127 time=0
note_off channel=1 note=74 velocity=64 time=96
note_on channel=1 note=72 velocity=127 time=0
note_off channel=1 note=72 velocity=64 time=96
note_on channel=1 note=71 velocity=127 time=0
note_off channel=1 note=71 velocity=64 time=96
note_on channel=1 note=72 velocity=127 time=0
note_off channel=1 note=64 velocity=64 time=96
note_off channel=1 note=72 velocity=64 time=0
note_on channel=1 note=66 velocity=127 time=0
note_on channel=1 note=63 velocity=127 time=0
note_off channel=1 note=66 velocity=64 time=192
note_off channel=1 note=63 velocity=64 time=0
note_on channel=1 note=71 velocity=127 time=0
note_on channel=1 note=62 velocity=127 time=0
note_off channel=1 note=62 velocity=64 time=192
note_on channel=1 note=61 velocity=127 time=0
note_off channel=1 note=71 velocity=64 time=96
note_on channel=1 note=69 velocity=127 time=0
note_off channel=1 note=61 velocity=64 time=96
note_off channel=1 note=69 velocity=64 time=0
note_on channel=1 note=68 velocity=127 time=0
note_on channel=1 note=60 velocity=127 time=0
note_off channel=1 note=68 velocity=64 time=96
note_on channel=1 note=69 velocity=127 time=0
note_off channel=1 note=60 velocity=64 time=96
note_on channel=1 note=59 velocity=127 time=0
note_off channel=1 note=69 velocity=64 time=96
note_on channel=1 note=68 velocity=127 time=0
note_off channel=1 note=68 velocity=64 time=96
note_on channel=1 note=66 velocity=127 time=0
note_off channel=1 note=66 velocity=64 time=96
note_on channel=1 note=68 velocity=127 time=0
note_off channel=1 note=59 velocity=64 time=96
note_off channel=1 note=68 velocity=64 time=0
note_on channel=1 note=57 velocity=127 time=0
note_on channel=1 note=69 velocity=127 time=96
note_off channel=1 note=69 velocity=64 time=96
note_on channel=1 note=68 velocity=127 time=0
note_off channel=1 note=68 velocity=64 time=96
note_on channel=1 note=69 velocity=127 time=0
note_off channel=1 note=57 velocity=64 time=96
note_off channel=1 note=69 velocity=64 time=0
note_on channel=1 note=64 velocity=127 time=0
note_off channel=1 note=64 velocity=64 time=192
note_on channel=1 note=72 velocity=127 time=0
note_off channel=1 note=72 velocity=64 time=288
note_on channel=1 note=71 velocity=127 time=0
note_off channel=1 note=71 velocity=64 time=96
note_on channel=1 note=69 velocity=127 time=0
note_off channel=1 note=69 velocity=64 time=96
note_on channel=1 note=71 velocity=127 time=0
note_off channel=1 note=71 velocity=64 time=96
note_on channel=1 note=64 velocity=127 time=0
note_off channel=1 note=64 velocity=64 time=192
note_on channel=1 note=74 velocity=127 time=0
note_off channel=1 note=74 velocity=64 time=288
note_on channel=1 note=72 velocity=127 time=0
note_on channel=1 note=64 velocity=127 time=0
note_off channel=1 note=72 velocity=64 time=96
note_off channel=1 note=64 velocity=64 time=0
note_on channel=1 note=63 velocity=127 time=0
note_on channel=1 note=71 velocity=127 time=0
note_off channel=1 note=63 velocity=64 time=96
note_off channel=1 note=71 velocity=64 time=0
note_on channel=1 note=72 velocity=127 time=0
note_on channel=1 note=64 velocity=127 time=0
note_off channel=1 note=72 velocity=64 time=96
note_off channel=1 note=64 velocity=64 time=0
note_on channel=1 note=75 velocity=127 time=0
note_on channel=1 note=57 velocity=127 time=0
note_off channel=1 note=57 velocity=64 time=192
note_on channel=1 note=67 velocity=127 time=0
note_off channel=1 note=75 velocity=64 time=288
note_off channel=1 note=67 velocity=64 time=0
note_on channel=1 note=74 velocity=127 time=0
note_on channel=1 note=66 velocity=127 time=0
note_off channel=1 note=66 velocity=64 time=96
note_on channel=1 note=64 velocity=127 time=0
note_off channel=1 note=64 velocity=64 time=96
note_on channel=1 note=66 velocity=127 time=0
note_off channel=1 note=74 velocity=64 time=96
note_off channel=1 note=66 velocity=64 time=0
note_on channel=1 note=62 velocity=127 time=0
note_off channel=1 note=62 velocity=64 time=192
note_on channel=1 note=72 velocity=127 time=0
note_on channel=1 note=78 velocity=127 time=0
note_off channel=1 note=78 velocity=64 time=192
note_on channel=1 note=79 velocity=127 time=0
note_off channel=1 note=72 velocity=64 time=96
note_on channel=1 note=70 velocity=127 time=0
note_off channel=1 note=70 velocity=64 time=96
note_on channel=1 note=69 velocity=127 time=0
note_off channel=1 note=69 velocity=64 time=96
note_on channel=1 note=70 velocity=127 time=0
note_off channel=1 note=70 velocity=64 time=96
note_on channel=1 note=72 velocity=127 time=0
note_off channel=1 note=72 velocity=64 time=96
note_on channel=1 note=74 velocity=127 time=0
note_off channel=1 note=74 velocity=64 time=96
note_on channel=1 note=72 velocity=127 time=0
note_off channel=1 note=72 velocity=64 time=96
note_on channel=1 note=74 velocity=127 time=0
note_off channel=1 note=74 velocity=64 time=96
note_on channel=1 note=75 velocity=127 time=0
note_off channel=1 note=79 velocity=64 time=96
note_on channel=1 note=78 velocity=127 time=0
note_off channel=1 note=78 velocity=64 time=96
note_on channel=1 note=82 velocity=127 time=0
note_off channel=1 note=82 velocity=64 time=96
note_on channel=1 note=81 velocity=127 time=0
note_off channel=1 note=81 velocity=64 time=96
note_on channel=1 note=78 velocity=127 time=0
note_off channel=1 note=75 velocity=64 time=96
note_on channel=1 note=74 velocity=127 time=0
note_off channel=1 note=74 velocity=64 time=96
note_on channel=1 note=75 velocity=127 time=0
note_off channel=1 note=75 velocity=64 time=96
note_on channel=1 note=72 velocity=127 time=0
note_off channel=1 note=78 velocity=64 time=96
note_off channel=1 note=72 velocity=64 time=0
note_on channel=1 note=79 velocity=127 time=0
note_on channel=1 note=74 velocity=127 time=0
note_off channel=1 note=79 velocity=64 time=96
note_off channel=1 note=74 velocity=64 time=0
note_on channel=1 note=74 velocity=127 time=0
note_off channel=1 note=74 velocity=64 time=96
note_on channel=1 note=72 velocity=127 time=0
note_off channel=1 note=72 velocity=64 time=96
note_on channel=1 note=74 velocity=127 time=0
note_off channel=1 note=74 velocity=64 time=96
note_on channel=1 note=67 velocity=127 time=0
note_off channel=1 note=67 velocity=64 time=192
note_on channel=1 note=77 velocity=127 time=0
note_off channel=1 note=77 velocity=64 time=288
note_on channel=1 note=76 velocity=127 time=0
note_off channel=1 note=76 velocity=64 time=96
note_on channel=1 note=74 velocity=127 time=0
note_off channel=1 note=74 velocity=64 time=96
note_on channel=1 note=76 velocity=127 time=0
note_off channel=1 note=76 velocity=64 time=96
note_on channel=1 note=72 velocity=127 time=0
note_off channel=1 note=72 velocity=64 time=192
note_on channel=1 note=82 velocity=127 time=0
note_off channel=1 note=82 velocity=64 time=288
note_on channel=1 note=81 velocity=127 time=0
note_on channel=1 note=65 velocity=127 time=0
note_off channel=1 note=81 velocity=64 time=96
note_off channel=1 note=65 velocity=64 time=0
note_on channel=1 note=79 velocity=127 time=0
note_on channel=1 note=64 velocity=127 time=0
note_off channel=1 note=79 velocity=64 time=96
note_off channel=1 note=64 velocity=64 time=0
note_on channel=1 note=65 velocity=127 time=0
note_on channel=1 note=82 velocity=127 time=0
note_off channel=1 note=65 velocity=64 time=96
note_off channel=1 note=82 velocity=64 time=0
note_on channel=1 note=81 velocity=127 time=0
note_on channel=1 note=60 velocity=127 time=0
note_off channel=1 note=81 velocity=64 time=96
note_on channel=1 note=79 velocity=127 time=0
note_off channel=1 note=60 velocity=64 time=96
note_off channel=1 note=79 velocity=64 time=0
note_on channel=1 note=77 velocity=127 time=0
note_on channel=1 note=69 velocity=127 time=0
note_off channel=1 note=77 velocity=64 time=96
note_on channel=1 note=76 velocity=127 time=0
note_off channel=1 note=76 velocity=64 time=96
note_on channel=1 note=74 velocity=127 time=0
note_off channel=1 note=69 velocity=64 time=96
note_on channel=1 note=67 velocity=127 time=0
note_off channel=1 note=67 velocity=64 time=96
note_on channel=1 note=65 velocity=127 time=0
note_off channel=1 note=65 velocity=64 time=96
note_on channel=1 note=67 velocity=127 time=0
note_off channel=1 note=67 velocity=64 time=96
note_on channel=1 note=58 velocity=127 time=0
note_off channel=1 note=74 velocity=64 time=96
note_on channel=1 note=77 velocity=127 time=0
note_off channel=1 note=58 velocity=64 time=96
note_off channel=1 note=77 velocity=64 time=0
note_on channel=1 note=76 velocity=127 time=0
note_on channel=1 note=67 velocity=127 time=0
note_off channel=1 note=76 velocity=64 time=96
note_on channel=1 note=74 velocity=127 time=0
note_off channel=1 note=74 velocity=64 time=96
note_on channel=1 note=73 velocity=127 time=0
note_off channel=1 note=67 velocity=64 time=96
note_on channel=1 note=65 velocity=127 time=0
note_off channel=1 note=65 velocity=64 time=96
note_on channel=1 note=64 velocity=127 time=0
note_off channel=1 note=64 velocity=64 time=96
note_on channel=1 note=65 velocity=127 time=0
note_off channel=1 note=65 velocity=64 time=96
note_on channel=1 note=57 velocity=127 time=0
note_off channel=1 note=73 velocity=64 time=96
note_on channel=1 note=69 velocity=127 time=0
note_off channel=1 note=57 velocity=64 time=96
note_off channel=1 note=69 velocity=64 time=0
note_on channel=1 note=65 velocity=127 time=0
note_on channel=1 note=74 velocity=127 time=0
note_off channel=1 note=74 velocity=64 time=96
note_on channel=1 note=72 velocity=127 time=0
note_off channel=1 note=72 velocity=64 time=96
note_on channel=1 note=70 velocity=127 time=0
note_off channel=1 note=65 velocity=64 time=96
note_on channel=1 note=64 velocity=127 time=0
note_off channel=1 note=64 velocity=64 time=96
note_on channel=1 note=62 velocity=127 time=0
note_off channel=1 note=62 velocity=64 time=96
note_on channel=1 note=65 velocity=127 time=0
note_off channel=1 note=65 velocity=64 time=96
note_on channel=1 note=63 velocity=127 time=0
note_off channel=1 note=63 velocity=64 time=96
note_on channel=1 note=62 velocity=127 time=0
note_off channel=1 note=62 velocity=64 time=96
note_on channel=1 note=61 velocity=127 time=0
note_off channel=1 note=61 velocity=64 time=96
note_on channel=1 note=62 velocity=127 time=0
note_off channel=1 note=62 velocity=64 time=96
note_on channel=1 note=61 velocity=127 time=0
note_off channel=1 note=70 velocity=64 time=96
note_on channel=1 note=69 velocity=127 time=0
note_off channel=1 note=61 velocity=64 time=96
note_off channel=1 note=69 velocity=64 time=0
note_on channel=1 note=68 velocity=127 time=0
note_on channel=1 note=62 velocity=127 time=0
note_off channel=1 note=68 velocity=64 time=96
note_on channel=1 note=71 velocity=127 time=0
note_off channel=1 note=62 velocity=64 time=96
note_off channel=1 note=71 velocity=64 time=0
note_on channel=1 note=69 velocity=127 time=0
note_on channel=1 note=64 velocity=127 time=0
note_off channel=1 note=69 velocity=64 time=96
note_on channel=1 note=67 velocity=127 time=0
note_off channel=1 note=67 velocity=64 time=96
note_on channel=1 note=65 velocity=127 time=0
note_off channel=1 note=65 velocity=64 time=96
note_on channel=1 note=67 velocity=127 time=0
note_off channel=1 note=67 velocity=64 time=96
note_on channel=1 note=65 velocity=127 time=0
note_off channel=1 note=64 velocity=64 time=192
note_on channel=1 note=57 velocity=127 time=0
note_off channel=1 note=57 velocity=64 time=192
note_on channel=1 note=62 velocity=127 time=0
note_off channel=1 note=65 velocity=64 time=96
note_on channel=1 note=69 velocity=127 time=0
note_off channel=1 note=69 velocity=64 time=96
note_on channel=1 note=67 velocity=127 time=0
note_off channel=1 note=67 velocity=64 time=96
note_on channel=1 note=69 velocity=127 time=0
note_off channel=1 note=69 velocity=64 time=96
note_on channel=1 note=70 velocity=127 time=0
note_off channel=1 note=62 velocity=64 time=96
note_on channel=1 note=67 velocity=127 time=0
note_off channel=1 note=70 velocity=64 time=96
note_off channel=1 note=67 velocity=64 time=0
note_on channel=1 note=71 velocity=127 time=0
note_on channel=1 note=65 velocity=127 time=0
note_off channel=1 note=65 velocity=64 time=96
note_on channel=1 note=67 velocity=127 time=0
note_off channel=1 note=71 velocity=64 time=96
note_off channel=1 note=67 velocity=64 time=0
note_on channel=1 note=72 velocity=127 time=0
note_on channel=1 note=64 velocity=127 time=0
note_off channel=1 note=64 velocity=64 time=96
note_on channel=1 note=70 velocity=127 time=0
note_off channel=1 note=72 velocity=64 time=96
note_off channel=1 note=70 velocity=64 time=0
note_on channel=1 note=73 velocity=127 time=0
note_on channel=1 note=69 velocity=127 time=0
note_off channel=1 note=69 velocity=64 time=96
note_on channel=1 note=67 velocity=127 time=0
note_off channel=1 note=73 velocity=64 time=96
note_off channel=1 note=67 velocity=64 time=0
note_on channel=1 note=74 velocity=127 time=0
note_on channel=1 note=69 velocity=127 time=0
note_off channel=1 note=69 velocity=64 time=96
note_on channel=1 note=62 velocity=127 time=0
note_off channel=1 note=62 velocity=64 time=96
note_on channel=1 note=72 velocity=127 time=0
note_off channel=1 note=72 velocity=64 time=288
note_on channel=1 note=70 velocity=127 time=0
note_off channel=1 note=70 velocity=64 time=96
note_on channel=1 note=69 velocity=127 time=0
note_off channel=1 note=69 velocity=64 time=96
note_on channel=1 note=70 velocity=127 time=0
note_off channel=1 note=70 velocity=64 time=96
note_on channel=1 note=69 velocity=127 time=0
note_off channel=1 note=69 velocity=64 time=96
note_on channel=1 note=67 velocity=127 time=0
note_off channel=1 note=67 velocity=64 time=96
note_on channel=1 note=66 velocity=127 time=0
note_off channel=1 note=66 velocity=64 time=96
note_on channel=1 note=67 velocity=127 time=0
note_off channel=1 note=67 velocity=64 time=96
note_on channel=1 note=62 velocity=127 time=0
note_off channel=1 note=74 velocity=64 time=192
note_off channel=1 note=62 velocity=64 time=0
note_on channel=1 note=74 velocity=127 time=0
note_on channel=1 note=70 velocity=127 time=0
note_off channel=1 note=74 velocity=64 time=192
note_on channel=1 note=73 velocity=127 time=0
note_off channel=1 note=70 velocity=64 time=96
note_on channel=1 note=69 velocity=127 time=0
note_off channel=1 note=73 velocity=64 time=96
note_off channel=1 note=69 velocity=64 time=0
note_on channel=1 note=72 velocity=127 time=0
note_on channel=1 note=67 velocity=127 time=0
note_off channel=1 note=67 velocity=64 time=96
note_on channel=1 note=69 velocity=127 time=0
note_off channel=1 note=72 velocity=64 time=96
note_off channel=1 note=69 velocity=64 time=0
note_on channel=1 note=62 velocity=127 time=0
note_on channel=1 note=71 velocity=127 time=0
note_off channel=1 note=62 velocity=64 time=192
note_off channel=1 note=71 velocity=64 time=0
note_on channel=1 note=70 velocity=127 time=0
note_on channel=1 note=67 velocity=127 time=0
note_off channel=1 note=70 velocity=64 time=192
note_on channel=1 note=69 velocity=127 time=0
note_off channel=1 note=67 velocity=64 time=96
note_on channel=1 note=65 velocity=127 time=0
note_off channel=1 note=65 velocity=64 time=96
note_on channel=1 note=64 velocity=127 time=0
note_off channel=1 note=64 velocity=64 time=96
note_on channel=1 note=65 velocity=127 time=0
note_off channel=1 note=69 velocity=64 time=96
note_off channel=1 note=65 velocity=64 time=0
note_on channel=1 note=68 velocity=127 time=0
note_on channel=1 note=59 velocity=127 time=0
note_off channel=1 note=68 velocity=64 time=192
note_off channel=1 note=59 velocity=64 time=0
note_on channel=1 note=67 velocity=127 time=0
note_on channel=1 note=64 velocity=127 time=0
note_off channel=1 note=67 velocity=64 time=192
note_on channel=1 note=66 velocity=127 time=0
note_off channel=1 note=64 velocity=64 time=96
note_on channel=1 note=62 velocity=127 time=0
note_off channel=1 note=66 velocity=64 time=96
note_off channel=1 note=62 velocity=64 time=0
note_on channel=1 note=65 velocity=127 time=0
note_on channel=1 note=61 velocity=127 time=0
note_off channel=1 note=61 velocity=64 time=96
note_on channel=1 note=62 velocity=127 time=0
note_off channel=1 note=65 velocity=64 time=96
note_on channel=1 note=64 velocity=127 time=0
note_off channel=1 note=62 velocity=64 time=96
note_on channel=1 note=61 velocity=127 time=0
note_off channel=1 note=61 velocity=64 time=96
note_on channel=1 note=59 velocity=127 time=0
note_off channel=1 note=59 velocity=64 time=96
note_on channel=1 note=61 velocity=127 time=0
note_off channel=1 note=64 velocity=64 time=96
note_off channel=1 note=61 velocity=64 time=0
note_on channel=1 note=62 velocity=127 time=0
note_off channel=1 note=62 velocity=64 time=768
MetaMessage('end_of_track', time=0)
Raita 2: down
MetaMessage('track_name', name='down', time=0)
note_on channel=2 note=50 velocity=127 time=0
MetaMessage('key_signature', key='Dm', time=0)
note_off channel=2 note=50 velocity=64 time=192
note_on channel=2 note=52 velocity=127 time=0
note_off channel=2 note=52 velocity=64 time=192
note_on channel=2 note=53 velocity=127 time=0
note_off channel=2 note=53 velocity=64 time=192
note_on channel=2 note=50 velocity=127 time=0
note_off channel=2 note=50 velocity=64 time=192
note_on channel=2 note=57 velocity=127 time=0
note_off channel=2 note=57 velocity=64 time=192
note_on channel=2 note=59 velocity=127 time=0
note_off channel=2 note=59 velocity=64 time=192
note_on channel=2 note=61 velocity=127 time=0
note_off channel=2 note=61 velocity=64 time=192
note_on channel=2 note=57 velocity=127 time=0
note_off channel=2 note=57 velocity=64 time=192
note_on channel=2 note=62 velocity=127 time=0
note_off channel=2 note=62 velocity=64 time=480
note_on channel=2 note=60 velocity=127 time=0
note_off channel=2 note=60 velocity=64 time=96
note_on channel=2 note=59 velocity=127 time=0
note_off channel=2 note=59 velocity=64 time=96
note_on channel=2 note=57 velocity=127 time=0
note_off channel=2 note=57 velocity=64 time=96
note_on channel=2 note=64 velocity=127 time=0
note_off channel=2 note=64 velocity=64 time=384
note_on channel=2 note=52 velocity=127 time=0
note_off channel=2 note=52 velocity=64 time=384
note_on channel=2 note=45 velocity=127 time=0
note_off channel=2 note=45 velocity=64 time=384
note_on channel=2 note=50 velocity=127 time=1248
note_off channel=2 note=50 velocity=64 time=96
note_on channel=2 note=49 velocity=127 time=0
note_off channel=2 note=49 velocity=64 time=96
note_on channel=2 note=50 velocity=127 time=0
note_off channel=2 note=50 velocity=64 time=96
note_on channel=2 note=45 velocity=127 time=0
note_off channel=2 note=45 velocity=64 time=192
note_on channel=2 note=53 velocity=127 time=0
note_off channel=2 note=53 velocity=64 time=288
note_on channel=2 note=52 velocity=127 time=0
note_off channel=2 note=52 velocity=64 time=96
note_on channel=2 note=50 velocity=127 time=0
note_off channel=2 note=50 velocity=64 time=96
note_on channel=2 note=52 velocity=127 time=0
note_off channel=2 note=52 velocity=64 time=96
note_on channel=2 note=45 velocity=127 time=0
note_off channel=2 note=45 velocity=64 time=192
note_on channel=2 note=55 velocity=127 time=0
note_off channel=2 note=55 velocity=64 time=288
note_on channel=2 note=53 velocity=127 time=0
note_off channel=2 note=53 velocity=64 time=96
note_on channel=2 note=52 velocity=127 time=0
note_off channel=2 note=52 velocity=64 time=96
note_on channel=2 note=50 velocity=127 time=0
note_off channel=2 note=50 velocity=64 time=96
note_on channel=2 note=58 velocity=127 time=0
note_off channel=2 note=58 velocity=64 time=480
note_on channel=2 note=52 velocity=127 time=0
note_off channel=2 note=52 velocity=64 time=96
note_on channel=2 note=50 velocity=127 time=0
note_off channel=2 note=50 velocity=64 time=96
note_on channel=2 note=48 velocity=127 time=0
note_off channel=2 note=48 velocity=64 time=96
note_on channel=2 note=57 velocity=127 time=0
note_off channel=2 note=57 velocity=64 time=480
note_on channel=2 note=50 velocity=127 time=0
note_off channel=2 note=50 velocity=64 time=96
note_on channel=2 note=48 velocity=127 time=0
note_off channel=2 note=48 velocity=64 time=96
note_on channel=2 note=50 velocity=127 time=0
note_off channel=2 note=50 velocity=64 time=96
note_on channel=2 note=43 velocity=127 time=0
note_off channel=2 note=43 velocity=64 time=192
note_on channel=2 note=53 velocity=127 time=0
note_off channel=2 note=53 velocity=64 time=288
note_on channel=2 note=52 velocity=127 time=0
note_off channel=2 note=52 velocity=64 time=96
note_on channel=2 note=50 velocity=127 time=0
note_off channel=2 note=50 velocity=64 time=96
note_on channel=2 note=52 velocity=127 time=0
note_off channel=2 note=52 velocity=64 time=96
note_on channel=2 note=48 velocity=127 time=0
note_off channel=2 note=48 velocity=64 time=192
note_on channel=2 note=58 velocity=127 time=0
note_off channel=2 note=58 velocity=64 time=288
note_on channel=2 note=57 velocity=127 time=0
note_off channel=2 note=57 velocity=64 time=96
note_on channel=2 note=55 velocity=127 time=0
note_off channel=2 note=55 velocity=64 time=96
note_on channel=2 note=57 velocity=127 time=0
note_off channel=2 note=57 velocity=64 time=96
note_on channel=2 note=53 velocity=127 time=0
note_off channel=2 note=53 velocity=64 time=192
note_on channel=2 note=63 velocity=127 time=0
note_off channel=2 note=63 velocity=64 time=192
note_on channel=2 note=62 velocity=127 time=0
note_off channel=2 note=62 velocity=64 time=192
note_on channel=2 note=60 velocity=127 time=0
note_off channel=2 note=60 velocity=64 time=192
note_on channel=2 note=58 velocity=127 time=0
note_off channel=2 note=58 velocity=64 time=192
note_on channel=2 note=57 velocity=127 time=0
note_off channel=2 note=57 velocity=64 time=192
note_on channel=2 note=58 velocity=127 time=0
note_off channel=2 note=58 velocity=64 time=192
note_on channel=2 note=55 velocity=127 time=0
note_off channel=2 note=55 velocity=64 time=192
note_on channel=2 note=60 velocity=127 time=0
note_off channel=2 note=60 velocity=64 time=192
note_on channel=2 note=48 velocity=127 time=0
note_off channel=2 note=48 velocity=64 time=192
note_on channel=2 note=41 velocity=127 time=0
note_off channel=2 note=41 velocity=64 time=192
note_on channel=2 note=43 velocity=127 time=0
note_off channel=2 note=43 velocity=64 time=192
note_on channel=2 note=45 velocity=127 time=0
note_off channel=2 note=45 velocity=64 time=192
note_on channel=2 note=41 velocity=127 time=0
note_off channel=2 note=41 velocity=64 time=192
note_on channel=2 note=48 velocity=127 time=0
note_off channel=2 note=48 velocity=64 time=192
note_on channel=2 note=50 velocity=127 time=0
note_off channel=2 note=50 velocity=64 time=192
note_on channel=2 note=52 velocity=127 time=0
note_off channel=2 note=52 velocity=64 time=192
note_on channel=2 note=48 velocity=127 time=0
note_off channel=2 note=48 velocity=64 time=192
note_on channel=2 note=53 velocity=127 time=0
note_off channel=2 note=53 velocity=64 time=192
note_on channel=2 note=55 velocity=127 time=0
note_off channel=2 note=55 velocity=64 time=192
note_on channel=2 note=57 velocity=127 time=0
note_off channel=2 note=57 velocity=64 time=192
note_on channel=2 note=53 velocity=127 time=0
note_off channel=2 note=53 velocity=64 time=192
note_on channel=2 note=60 velocity=127 time=0
note_off channel=2 note=60 velocity=64 time=192
note_on channel=2 note=62 velocity=127 time=0
note_off channel=2 note=62 velocity=64 time=192
note_on channel=2 note=64 velocity=127 time=0
note_off channel=2 note=64 velocity=64 time=192
note_on channel=2 note=60 velocity=127 time=0
note_off channel=2 note=60 velocity=64 time=192
note_on channel=2 note=65 velocity=127 time=0
note_off channel=2 note=65 velocity=64 time=96
note_on channel=2 note=60 velocity=127 time=0
note_off channel=2 note=60 velocity=64 time=96
note_on channel=2 note=58 velocity=127 time=0
note_off channel=2 note=58 velocity=64 time=96
note_on channel=2 note=60 velocity=127 time=0
note_off channel=2 note=60 velocity=64 time=96
note_on channel=2 note=53 velocity=127 time=0
note_off channel=2 note=53 velocity=64 time=192
note_on channel=2 note=65 velocity=127 time=0
note_off channel=2 note=65 velocity=64 time=288
note_on channel=2 note=58 velocity=127 time=0
note_off channel=2 note=58 velocity=64 time=96
note_on channel=2 note=57 velocity=127 time=0
note_off channel=2 note=57 velocity=64 time=96
note_on channel=2 note=58 velocity=127 time=0
note_off channel=2 note=58 velocity=64 time=96
note_on channel=2 note=52 velocity=127 time=0
note_off channel=2 note=52 velocity=64 time=192
note_on channel=2 note=64 velocity=127 time=0
note_off channel=2 note=64 velocity=64 time=288
note_on channel=2 note=57 velocity=127 time=0
note_off channel=2 note=57 velocity=64 time=96
note_on channel=2 note=55 velocity=127 time=0
note_off channel=2 note=55 velocity=64 time=96
note_on channel=2 note=57 velocity=127 time=0
note_off channel=2 note=57 velocity=64 time=96
note_on channel=2 note=50 velocity=127 time=0
note_off channel=2 note=50 velocity=64 time=192
note_on channel=2 note=62 velocity=127 time=0
note_off channel=2 note=62 velocity=64 time=384
note_on channel=2 note=60 velocity=127 time=0
note_off channel=2 note=60 velocity=64 time=288
note_on channel=2 note=59 velocity=127 time=0
note_off channel=2 note=59 velocity=64 time=96
note_on channel=2 note=57 velocity=127 time=0
note_off channel=2 note=57 velocity=64 time=96
note_on channel=2 note=59 velocity=127 time=0
note_off channel=2 note=59 velocity=64 time=96
note_on channel=2 note=56 velocity=127 time=0
note_off channel=2 note=56 velocity=64 time=192
note_on channel=2 note=57 velocity=127 time=0
note_off channel=2 note=57 velocity=64 time=288
note_on channel=2 note=56 velocity=127 time=0
note_off channel=2 note=56 velocity=64 time=96
note_on channel=2 note=54 velocity=127 time=0
note_off channel=2 note=54 velocity=64 time=96
note_on channel=2 note=56 velocity=127 time=0
note_off channel=2 note=56 velocity=64 time=96
note_on channel=2 note=57 velocity=127 time=0
note_off channel=2 note=57 velocity=64 time=192
note_on channel=2 note=51 velocity=127 time=0
note_off channel=2 note=51 velocity=64 time=192
note_on channel=2 note=52 velocity=127 time=0
note_off channel=2 note=52 velocity=64 time=192
note_on channel=2 note=40 velocity=127 time=0
note_off channel=2 note=40 velocity=64 time=192
note_on channel=2 note=45 velocity=127 time=0
note_off channel=2 note=45 velocity=64 time=192
note_on channel=2 note=47 velocity=127 time=0
note_off channel=2 note=47 velocity=64 time=192
note_on channel=2 note=48 velocity=127 time=0
note_off channel=2 note=48 velocity=64 time=192
note_on channel=2 note=45 velocity=127 time=0
note_off channel=2 note=45 velocity=64 time=192
note_on channel=2 note=52 velocity=127 time=0
note_off channel=2 note=52 velocity=64 time=192
note_on channel=2 note=54 velocity=127 time=0
note_off channel=2 note=54 velocity=64 time=192
note_on channel=2 note=56 velocity=127 time=0
note_off channel=2 note=56 velocity=64 time=192
note_on channel=2 note=52 velocity=127 time=0
note_off channel=2 note=52 velocity=64 time=192
note_on channel=2 note=57 velocity=127 time=0
note_off channel=2 note=57 velocity=64 time=480
note_on channel=2 note=55 velocity=127 time=0
note_off channel=2 note=55 velocity=64 time=96
note_on channel=2 note=54 velocity=127 time=0
note_off channel=2 note=54 velocity=64 time=96
note_on channel=2 note=55 velocity=127 time=0
note_off channel=2 note=55 velocity=64 time=96
note_on channel=2 note=50 velocity=127 time=0
note_off channel=2 note=50 velocity=64 time=192
note_on channel=2 note=48 velocity=127 time=0
note_off channel=2 note=48 velocity=64 time=192
note_on channel=2 note=46 velocity=127 time=0
note_off channel=2 note=46 velocity=64 time=192
note_on channel=2 note=45 velocity=127 time=0
note_off channel=2 note=45 velocity=64 time=192
note_on channel=2 note=43 velocity=127 time=0
note_off channel=2 note=43 velocity=64 time=96
note_on channel=2 note=55 velocity=127 time=0
note_off channel=2 note=55 velocity=64 time=96
note_on channel=2 note=54 velocity=127 time=0
note_off channel=2 note=54 velocity=64 time=96
note_on channel=2 note=55 velocity=127 time=0
note_off channel=2 note=55 velocity=64 time=96
note_on channel=2 note=50 velocity=127 time=0
note_off channel=2 note=50 velocity=64 time=192
note_on channel=2 note=58 velocity=127 time=0
note_off channel=2 note=58 velocity=64 time=288
note_on channel=2 note=57 velocity=127 time=0
note_off channel=2 note=57 velocity=64 time=96
note_on channel=2 note=55 velocity=127 time=0
note_off channel=2 note=55 velocity=64 time=96
note_on channel=2 note=57 velocity=127 time=0
note_off channel=2 note=57 velocity=64 time=96
note_on channel=2 note=50 velocity=127 time=0
note_off channel=2 note=50 velocity=64 time=192
note_on channel=2 note=60 velocity=127 time=0
note_off channel=2 note=60 velocity=64 time=288
note_on channel=2 note=58 velocity=127 time=0
note_off channel=2 note=58 velocity=64 time=96
note_on channel=2 note=57 velocity=127 time=0
note_off channel=2 note=57 velocity=64 time=96
note_on channel=2 note=58 velocity=127 time=0
note_off channel=2 note=58 velocity=64 time=96
note_on channel=2 note=60 velocity=127 time=0
note_off channel=2 note=60 velocity=64 time=96
note_on channel=2 note=58 velocity=127 time=0
note_off channel=2 note=58 velocity=64 time=96
note_on channel=2 note=57 velocity=127 time=0
note_off channel=2 note=57 velocity=64 time=96
note_on channel=2 note=55 velocity=127 time=0
note_off channel=2 note=55 velocity=64 time=96
note_on channel=2 note=60 velocity=127 time=0
note_off channel=2 note=60 velocity=64 time=192
note_on channel=2 note=62 velocity=127 time=0
note_off channel=2 note=62 velocity=64 time=192
note_on channel=2 note=64 velocity=127 time=0
note_off channel=2 note=64 velocity=64 time=192
note_on channel=2 note=60 velocity=127 time=0
note_off channel=2 note=60 velocity=64 time=192
note_on channel=2 note=53 velocity=127 time=0
note_off channel=2 note=53 velocity=64 time=384
note_on channel=2 note=53 velocity=127 time=192
note_off channel=2 note=53 velocity=64 time=192
note_on channel=2 note=58 velocity=127 time=0
note_off channel=2 note=58 velocity=64 time=192
note_on channel=2 note=57 velocity=127 time=0
note_off channel=2 note=57 velocity=64 time=192
note_on channel=2 note=55 velocity=127 time=0
note_off channel=2 note=55 velocity=64 time=192
note_on channel=2 note=58 velocity=127 time=0
note_off channel=2 note=58 velocity=64 time=192
note_on channel=2 note=57 velocity=127 time=0
note_off channel=2 note=57 velocity=64 time=192
note_on channel=2 note=55 velocity=127 time=0
note_off channel=2 note=55 velocity=64 time=192
note_on channel=2 note=53 velocity=127 time=0
note_off channel=2 note=53 velocity=64 time=192
note_on channel=2 note=50 velocity=127 time=0
note_off channel=2 note=50 velocity=64 time=192
note_on channel=2 note=55 velocity=127 time=0
note_off channel=2 note=55 velocity=64 time=192
note_on channel=2 note=53 velocity=127 time=0
note_off channel=2 note=53 velocity=64 time=192
note_on channel=2 note=55 velocity=127 time=0
note_off channel=2 note=55 velocity=64 time=192
note_on channel=2 note=52 velocity=127 time=0
note_off channel=2 note=52 velocity=64 time=192
note_on channel=2 note=57 velocity=127 time=0
note_off channel=2 note=57 velocity=64 time=192
note_on channel=2 note=59 velocity=127 time=0
note_off channel=2 note=59 velocity=64 time=192
note_on channel=2 note=61 velocity=127 time=0
note_off channel=2 note=61 velocity=64 time=192
note_on channel=2 note=57 velocity=127 time=0
note_off channel=2 note=57 velocity=64 time=192
note_on channel=2 note=62 velocity=127 time=0
note_off channel=2 note=62 velocity=64 time=96
note_on channel=2 note=50 velocity=127 time=0
note_off channel=2 note=50 velocity=64 time=96
note_on channel=2 note=49 velocity=127 time=0
note_off channel=2 note=49 velocity=64 time=96
note_on channel=2 note=50 velocity=127 time=0
note_off channel=2 note=50 velocity=64 time=96
note_on channel=2 note=45 velocity=127 time=0
note_off channel=2 note=45 velocity=64 time=192
note_on channel=2 note=53 velocity=127 time=0
note_off channel=2 note=53 velocity=64 time=288
note_on channel=2 note=52 velocity=127 time=0
note_off channel=2 note=52 velocity=64 time=96
note_on channel=2 note=50 velocity=127 time=0
note_off channel=2 note=50 velocity=64 time=96
note_on channel=2 note=52 velocity=127 time=0
note_off channel=2 note=52 velocity=64 time=96
note_on channel=2 note=45 velocity=127 time=0
note_off channel=2 note=45 velocity=64 time=192
note_on channel=2 note=55 velocity=127 time=0
note_off channel=2 note=55 velocity=64 time=288
note_on channel=2 note=54 velocity=127 time=0
note_off channel=2 note=54 velocity=64 time=96
note_on channel=2 note=52 velocity=127 time=0
note_off channel=2 note=52 velocity=64 time=96
note_on channel=2 note=54 velocity=127 time=0
note_off channel=2 note=54 velocity=64 time=96
note_on channel=2 note=50 velocity=127 time=0
note_off channel=2 note=50 velocity=64 time=192
note_on channel=2 note=60 velocity=127 time=0
note_off channel=2 note=60 velocity=64 time=192
note_on channel=2 note=58 velocity=127 time=0
note_off channel=2 note=58 velocity=64 time=192
note_on channel=2 note=57 velocity=127 time=0
note_off channel=2 note=57 velocity=64 time=192
note_on channel=2 note=58 velocity=127 time=0
note_off channel=2 note=58 velocity=64 time=96
note_on channel=2 note=57 velocity=127 time=0
note_off channel=2 note=57 velocity=64 time=96
note_on channel=2 note=55 velocity=127 time=0
note_off channel=2 note=55 velocity=64 time=96
note_on channel=2 note=57 velocity=127 time=0
note_off channel=2 note=57 velocity=64 time=96
note_on channel=2 note=55 velocity=127 time=0
note_off channel=2 note=55 velocity=64 time=96
note_on channel=2 note=54 velocity=127 time=0
note_off channel=2 note=54 velocity=64 time=96
note_on channel=2 note=52 velocity=127 time=0
note_off channel=2 note=52 velocity=64 time=96
note_on channel=2 note=54 velocity=127 time=0
note_off channel=2 note=54 velocity=64 time=96
note_on channel=2 note=55 velocity=127 time=0
note_off channel=2 note=55 velocity=64 time=96
note_on channel=2 note=53 velocity=127 time=0
note_off channel=2 note=53 velocity=64 time=96
note_on channel=2 note=51 velocity=127 time=0
note_off channel=2 note=51 velocity=64 time=96
note_on channel=2 note=50 velocity=127 time=0
note_off channel=2 note=50 velocity=64 time=96
note_on channel=2 note=49 velocity=127 time=0
note_off channel=2 note=49 velocity=64 time=192
note_on channel=2 note=50 velocity=127 time=0
note_off channel=2 note=50 velocity=64 time=288
note_on channel=2 note=49 velocity=127 time=0
note_off channel=2 note=49 velocity=64 time=96
note_on channel=2 note=47 velocity=127 time=0
note_off channel=2 note=47 velocity=64 time=96
note_on channel=2 note=49 velocity=127 time=0
note_off channel=2 note=49 velocity=64 time=96
note_on channel=2 note=50 velocity=127 time=0
note_off channel=2 note=50 velocity=64 time=192
note_on channel=2 note=44 velocity=127 time=0
note_off channel=2 note=44 velocity=64 time=192
note_on channel=2 note=45 velocity=127 time=0
note_off channel=2 note=45 velocity=64 time=384
note_on channel=2 note=38 velocity=127 time=0
note_off channel=2 note=38 velocity=64 time=768
MetaMessage('end_of_track', time=0)
