Raita 0: control track
MetaMessage('track_name', name='control track', time=0)
MetaMessage('text', text='creator: ', time=0)
MetaMessage('text', text='GNU LilyPond 2.14.1           ', time=0)
MetaMessage('time_signature', numerator=4, denominator=4, clocks_per_click=18, notated_32nd_notes_per_beat=8, time=0)
MetaMessage('set_tempo', tempo=857142, time=0)
MetaMessage('end_of_track', time=0)
Raita 1: up:
MetaMessage('track_name', name='up:', time=0)
MetaMessage('key_signature', key='Fm', time=0)
note_on channel=0 note=65 velocity=90 time=192
note_on channel=0 note=65 velocity=0 time=192
note_on channel=0 note=68 velocity=90 time=0
note_on channel=0 note=68 velocity=0 time=192
note_on channel=0 note=67 velocity=90 time=0
note_on channel=0 note=67 velocity=0 time=192
note_on channel=0 note=67 velocity=90 time=192
note_on channel=0 note=67 velocity=0 time=192
note_on channel=0 note=70 velocity=90 time=0
note_on channel=0 note=70 velocity=0 time=192
note_on channel=0 note=69 velocity=90 time=0
note_on channel=0 note=69 velocity=0 time=192
note_on channel=0 note=70 velocity=90 time=192
note_on channel=0 note=70 velocity=0 time=192
note_on channel=0 note=76 velocity=90 time=0
note_on channel=0 note=76 velocity=0 time=192
note_on channel=0 note=77 velocity=90 time=0
note_on channel=0 note=77 velocity=0 time=384
note_on channel=0 note=75 velocity=90 time=0
note_on channel=0 note=75 velocity=0 time=96
note_on channel=0 note=73 velocity=90 time=0
note_on channel=0 note=73 velocity=0 time=96
note_on channel=0 note=72 velocity=90 time=0
note_on channel=0 note=72 velocity=0 time=192
note_on channel=0 note=70 velocity=90 time=0
note_on channel=0 note=70 velocity=0 time=192
note_on channel=0 note=68 velocity=90 time=0
note_on channel=0 note=72 velocity=90 time=192
note_on channel=0 note=68 velocity=0 time=192
note_on channel=0 note=72 velocity=0 time=0
note_on channel=0 note=75 velocity=90 time=0
note_on channel=0 note=72 velocity=90 time=0
note_on channel=0 note=75 velocity=0 time=192
note_on channel=0 note=74 velocity=90 time=0
note_on channel=0 note=72 velocity=0 time=192
note_on channel=0 note=74 velocity=0 time=0
note_on channel=0 note=71 velocity=90 time=0
note_on channel=0 note=74 velocity=90 time=192
note_on channel=0 note=71 velocity=0 time=192
note_on channel=0 note=74 velocity=0 time=0
note_on channel=0 note=77 velocity=90 time=0
note_on channel=0 note=70 velocity=90 time=0
note_on channel=0 note=77 velocity=0 time=192
note_on channel=0 note=76 velocity=90 time=0
note_on channel=0 note=70 velocity=0 time=192
note_on channel=0 note=76 velocity=0 time=0
note_on channel=0 note=69 velocity=90 time=0
note_on channel=0 note=77 velocity=90 time=192
note_on channel=0 note=69 velocity=0 time=192
note_on channel=0 note=77 velocity=0 time=0
note_on channel=0 note=83 velocity=90 time=0
note_on channel=0 note=68 velocity=90 time=0
note_on channel=0 note=83 velocity=0 time=192
note_on channel=0 note=84 velocity=90 time=0
note_on channel=0 note=68 velocity=0 time=192
note_on channel=0 note=67 velocity=90 time=0
note_on channel=0 note=84 velocity=0 time=192
note_on channel=0 note=67 velocity=0 time=0
note_on channel=0 note=82 velocity=90 time=0
note_on channel=0 note=72 velocity=90 time=0
note_on channel=0 note=82 velocity=0 time=96
note_on channel=0 note=80 velocity=90 time=0
note_on channel=0 note=80 velocity=0 time=96
note_on channel=0 note=79 velocity=90 time=0
note_on channel=0 note=72 velocity=0 time=192
note_on channel=0 note=79 velocity=0 time=0
note_on channel=0 note=77 velocity=90 time=0
note_on channel=0 note=71 velocity=90 time=0
note_on channel=0 note=77 velocity=0 time=192
note_on channel=0 note=71 velocity=0 time=0
note_on channel=0 note=72 velocity=90 time=0
note_on channel=0 note=75 velocity=90 time=0
note_on channel=0 note=75 velocity=0 time=192
note_on channel=0 note=79 velocity=90 time=0
note_on channel=0 note=72 velocity=0 time=192
note_on channel=0 note=79 velocity=0 time=0
note_on channel=0 note=80 velocity=90 time=0
note_on channel=0 note=80 velocity=0 time=192
note_on channel=0 note=79 velocity=90 time=0
note_on channel=0 note=72 velocity=90 time=0
note_on channel=0 note=79 velocity=0 time=192
note_on channel=0 note=72 velocity=0 time=0
note_on channel=0 note=77 velocity=90 time=0
note_on channel=0 note=73 velocity=90 time=0
note_on channel=0 note=73 velocity=0 time=192
note_on channel=0 note=72 velocity=90 time=0
note_on channel=0 note=72 velocity=0 time=192
note_on channel=0 note=70 velocity=90 time=0
note_on channel=0 note=77 velocity=0 time=96
note_on channel=0 note=78 velocity=90 time=0
note_on channel=0 note=78 velocity=0 time=96
note_on channel=0 note=76 velocity=90 time=0
note_on channel=0 note=76 velocity=0 time=96
note_on channel=0 note=77 velocity=90 time=0
note_on channel=0 note=77 velocity=0 time=96
note_on channel=0 note=76 velocity=90 time=0
note_on channel=0 note=70 velocity=0 time=96
note_on channel=0 note=72 velocity=90 time=0
note_on channel=0 note=72 velocity=0 time=96
note_on channel=0 note=69 velocity=90 time=0
note_on channel=0 note=69 velocity=0 time=96
note_on channel=0 note=70 velocity=90 time=0
note_on channel=0 note=76 velocity=0 time=96
note_on channel=0 note=70 velocity=0 time=0
note_on channel=0 note=69 velocity=90 time=0
note_on channel=0 note=84 velocity=90 time=96
note_on channel=0 note=84 velocity=0 time=96
note_on channel=0 note=77 velocity=90 time=0
note_on channel=0 note=77 velocity=0 time=96
note_on channel=0 note=75 velocity=90 time=0
note_on channel=0 note=69 velocity=0 time=96
note_on channel=0 note=75 velocity=0 time=0
note_on channel=0 note=73 velocity=90 time=0
note_on channel=0 note=70 velocity=90 time=0
note_on channel=0 note=70 velocity=0 time=96
note_on channel=0 note=66 velocity=90 time=0
note_on channel=0 note=66 velocity=0 time=96
note_on channel=0 note=64 velocity=90 time=0
note_on channel=0 note=64 velocity=0 time=96
note_on channel=0 note=65 velocity=90 time=0
note_on channel=0 note=65 velocity=0 time=96
note_on channel=0 note=64 velocity=90 time=0
note_on channel=0 note=73 velocity=0 time=96
note_on channel=0 note=79 velocity=90 time=0
note_on channel=0 note=79 velocity=0 time=96
note_on channel=0 note=72 velocity=90 time=0
note_on channel=0 note=72 velocity=0 time=96
note_on channel=0 note=70 velocity=90 time=0
note_on channel=0 note=64 velocity=0 time=96
note_on channel=0 note=70 velocity=0 time=0
note_on channel=0 note=68 velocity=90 time=0
note_on channel=0 note=65 velocity=90 time=0
note_on channel=0 note=68 velocity=0 time=384
note_on channel=0 note=65 velocity=0 time=0
note_on channel=0 note=77 velocity=90 time=0
note_on channel=0 note=70 velocity=90 time=192
note_on channel=0 note=70 velocity=0 time=96
note_on channel=0 note=72 velocity=90 time=0
note_on channel=0 note=72 velocity=0 time=48
note_on channel=0 note=73 velocity=90 time=0
note_on channel=0 note=77 velocity=0 time=48
note_on channel=0 note=73 velocity=0 time=0
note_on channel=0 note=76 velocity=90 time=0
note_on channel=0 note=73 velocity=90 time=0
note_on channel=0 note=73 velocity=0 time=96
note_on channel=0 note=71 velocity=90 time=0
note_on channel=0 note=71 velocity=0 time=96
note_on channel=0 note=72 velocity=90 time=0
note_on channel=0 note=76 velocity=0 time=192
note_on channel=0 note=72 velocity=0 time=0
note_on channel=0 note=75 velocity=90 time=0
note_on channel=0 note=72 velocity=90 time=192
note_on channel=0 note=72 velocity=0 time=96
note_on channel=0 note=69 velocity=90 time=0
note_on channel=0 note=75 velocity=0 time=96
note_on channel=0 note=69 velocity=0 time=0
note_on channel=0 note=74 velocity=90 time=0
note_on channel=0 note=66 velocity=90 time=0
note_on channel=0 note=66 velocity=0 time=96
note_on channel=0 note=64 velocity=90 time=0
note_on channel=0 note=64 velocity=0 time=96
note_on channel=0 note=65 velocity=90 time=0
note_on channel=0 note=74 velocity=0 time=192
note_on channel=0 note=65 velocity=0 time=0
note_on channel=0 note=73 velocity=90 time=0
note_on channel=0 note=67 velocity=90 time=192
note_on channel=0 note=67 velocity=0 time=96
note_on channel=0 note=68 velocity=90 time=0
note_on channel=0 note=68 velocity=0 time=48
note_on channel=0 note=70 velocity=90 time=0
note_on channel=0 note=73 velocity=0 time=48
note_on channel=0 note=70 velocity=0 time=0
note_on channel=0 note=72 velocity=90 time=0
note_on channel=0 note=68 velocity=90 time=0
note_on channel=0 note=72 velocity=0 time=192
note_on channel=0 note=77 velocity=90 time=0
note_on channel=0 note=68 velocity=0 time=96
note_on channel=0 note=70 velocity=90 time=0
note_on channel=0 note=70 velocity=0 time=96
note_on channel=0 note=68 velocity=90 time=0
note_on channel=0 note=77 velocity=0 time=192
note_on channel=0 note=68 velocity=0 time=0
note_on channel=0 note=76 velocity=90 time=0
note_on channel=0 note=67 velocity=90 time=0
note_on channel=0 note=76 velocity=0 time=192
note_on channel=0 note=67 velocity=0 time=0
note_on channel=0 note=77 velocity=90 time=0
note_on channel=0 note=65 velocity=90 time=0
note_on channel=0 note=77 velocity=0 time=192
note_on channel=0 note=65 velocity=0 time=0
note_on channel=0 note=75 velocity=90 time=0
note_on channel=0 note=60 velocity=90 time=0
note_on channel=0 note=60 velocity=0 time=192
note_on channel=0 note=66 velocity=90 time=0
note_on channel=0 note=75 velocity=0 time=192
note_on channel=0 note=66 velocity=0 time=0
note_on channel=0 note=73 velocity=90 time=0
note_on channel=0 note=65 velocity=90 time=0
note_on channel=0 note=73 velocity=0 time=96
note_on channel=0 note=72 velocity=90 time=0
note_on channel=0 note=65 velocity=0 time=96
note_on channel=0 note=72 velocity=0 time=0
note_on channel=0 note=73 velocity=90 time=0
note_on channel=0 note=65 velocity=90 time=192
note_on channel=0 note=73 velocity=0 time=192
note_on channel=0 note=65 velocity=0 time=0
note_on channel=0 note=74 velocity=90 time=0
note_on channel=0 note=71 velocity=90 time=0
note_on channel=0 note=71 velocity=0 time=192
note_on channel=0 note=70 velocity=90 time=0
note_on channel=0 note=74 velocity=0 time=192
note_on channel=0 note=75 velocity=90 time=0
note_on channel=0 note=70 velocity=0 time=192
note_on channel=0 note=75 velocity=0 time=0
note_on channel=0 note=75 velocity=90 time=0
note_on channel=0 note=68 velocity=90 time=0
note_on channel=0 note=75 velocity=0 time=192
note_on channel=0 note=83 velocity=90 time=0
note_on channel=0 note=68 velocity=0 time=192
note_on channel=0 note=83 velocity=0 time=0
note_on channel=0 note=82 velocity=90 time=0
note_on channel=0 note=66 velocity=90 time=0
note_on channel=0 note=66 velocity=0 time=96
note_on channel=0 note=65 velocity=90 time=0
note_on channel=0 note=82 velocity=0 time=96
note_on channel=0 note=65 velocity=0 time=0
note_on channel=0 note=66 velocity=90 time=0
note_on channel=0 note=70 velocity=90 time=192
note_on channel=0 note=66 velocity=0 time=192
note_on channel=0 note=70 velocity=0 time=0
note_on channel=0 note=76 velocity=90 time=0
note_on channel=0 note=67 velocity=90 time=0
note_on channel=0 note=76 velocity=0 time=192
note_on channel=0 note=75 velocity=90 time=0
note_on channel=0 note=67 velocity=0 time=192
note_on channel=0 note=68 velocity=90 time=0
note_on channel=0 note=75 velocity=0 time=96
note_on channel=0 note=70 velocity=90 time=0
note_on channel=0 note=68 velocity=0 time=96
note_on channel=0 note=70 velocity=0 time=0
note_on channel=0 note=72 velocity=90 time=0
note_on channel=0 note=56 velocity=90 time=0
note_on channel=0 note=72 velocity=0 time=96
note_on channel=0 note=68 velocity=90 time=0
note_on channel=0 note=56 velocity=0 time=96
note_on channel=0 note=68 velocity=0 time=0
note_on channel=0 note=65 velocity=90 time=0
note_on channel=0 note=60 velocity=90 time=0
note_on channel=0 note=65 velocity=0 time=192
note_on channel=0 note=60 velocity=0 time=0
note_on channel=0 note=74 velocity=90 time=0
note_on channel=0 note=58 velocity=90 time=0
note_on channel=0 note=74 velocity=0 time=96
note_on channel=0 note=75 velocity=90 time=0
note_on channel=0 note=75 velocity=0 time=48
note_on channel=0 note=77 velocity=90 time=0
note_on channel=0 note=58 velocity=0 time=48
note_on channel=0 note=77 velocity=0 time=0
note_on channel=0 note=77 velocity=90 time=0
note_on channel=0 note=77 velocity=0 time=96
note_on channel=0 note=74 velocity=90 time=0
note_on channel=0 note=74 velocity=0 time=96
note_on channel=0 note=75 velocity=90 time=0
note_on channel=0 note=58 velocity=90 time=0
note_on channel=0 note=75 velocity=0 time=192
note_on channel=0 note=58 velocity=0 time=0
note_on channel=0 note=61 velocity=90 time=0
note_on channel=0 note=61 velocity=0 time=192
note_on channel=0 note=75 velocity=90 time=0
note_on channel=0 note=60 velocity=90 time=0
note_on channel=0 note=75 velocity=0 time=96
note_on channel=0 note=72 velocity=90 time=0
note_on channel=0 note=60 velocity=0 time=96
note_on channel=0 note=72 velocity=0 time=0
note_on channel=0 note=69 velocity=90 time=0
note_on channel=0 note=69 velocity=0 time=96
note_on channel=0 note=67 velocity=90 time=0
note_on channel=0 note=67 velocity=0 time=96
note_on channel=0 note=68 velocity=90 time=0
note_on channel=0 note=61 velocity=90 time=0
note_on channel=0 note=68 velocity=0 time=192
note_on channel=0 note=61 velocity=0 time=0
note_on channel=0 note=67 velocity=90 time=0
note_on channel=0 note=67 velocity=0 time=192
note_on channel=0 note=70 velocity=90 time=0
note_on channel=0 note=68 velocity=90 time=0
note_on channel=0 note=70 velocity=0 time=96
note_on channel=0 note=72 velocity=90 time=0
note_on channel=0 note=72 velocity=0 time=48
note_on channel=0 note=73 velocity=90 time=0
note_on channel=0 note=73 velocity=0 time=48
note_on channel=0 note=72 velocity=90 time=0
note_on channel=0 note=68 velocity=0 time=192
note_on channel=0 note=67 velocity=90 time=0
note_on channel=0 note=72 velocity=0 time=96
note_on channel=0 note=67 velocity=0 time=0
note_on channel=0 note=70 velocity=90 time=0
note_on channel=0 note=65 velocity=90 time=0
note_on channel=0 note=70 velocity=0 time=96
note_on channel=0 note=65 velocity=0 time=0
note_on channel=0 note=67 velocity=90 time=0
note_on channel=0 note=63 velocity=90 time=0
note_on channel=0 note=63 velocity=0 time=192
note_on channel=0 note=61 velocity=90 time=0
note_on channel=0 note=67 velocity=0 time=192
note_on channel=0 note=61 velocity=0 time=0
note_on channel=0 note=60 velocity=90 time=0
note_on channel=0 note=68 velocity=90 time=0
note_on channel=0 note=68 velocity=0 time=192
note_on channel=0 note=63 velocity=90 time=0
note_on channel=0 note=60 velocity=0 time=192
note_on channel=0 note=63 velocity=0 time=0
note_on channel=0 note=66 velocity=90 time=0
note_on channel=0 note=63 velocity=90 time=0
note_on channel=0 note=66 velocity=0 time=192
note_on channel=0 note=65 velocity=90 time=0
note_on channel=0 note=63 velocity=0 time=192
note_on channel=0 note=65 velocity=0 time=0
note_on channel=0 note=62 velocity=90 time=0
note_on channel=0 note=65 velocity=90 time=192
note_on channel=0 note=62 velocity=0 time=192
note_on channel=0 note=65 velocity=0 time=0
note_on channel=0 note=68 velocity=90 time=0
note_on channel=0 note=61 velocity=90 time=0
note_on channel=0 note=68 velocity=0 time=192
note_on channel=0 note=67 velocity=90 time=0
note_on channel=0 note=61 velocity=0 time=192
note_on channel=0 note=67 velocity=0 time=0
note_on channel=0 note=60 velocity=90 time=0
note_on channel=0 note=68 velocity=90 time=192
note_on channel=0 note=60 velocity=0 time=192
note_on channel=0 note=68 velocity=0 time=0
note_on channel=0 note=74 velocity=90 time=0
note_on channel=0 note=59 velocity=90 time=0
note_on channel=0 note=74 velocity=0 time=192
note_on channel=0 note=75 velocity=90 time=0
note_on channel=0 note=59 velocity=0 time=192
note_on channel=0 note=58 velocity=90 time=0
note_on channel=0 note=75 velocity=0 time=192
note_on channel=0 note=58 velocity=0 time=0
note_on channel=0 note=74 velocity=90 time=0
note_on channel=0 note=63 velocity=90 time=0
note_on channel=0 note=74 velocity=0 time=96
note_on channel=0 note=72 velocity=90 time=0
note_on channel=0 note=72 velocity=0 time=96
note_on channel=0 note=70 velocity=90 time=0
note_on channel=0 note=63 velocity=0 time=192
note_on channel=0 note=70 velocity=0 time=0
note_on channel=0 note=68 velocity=90 time=0
note_on channel=0 note=62 velocity=90 time=0
note_on channel=0 note=68 velocity=0 time=192
note_on channel=0 note=62 velocity=0 time=0
note_on channel=0 note=67 velocity=90 time=0
note_on channel=0 note=63 velocity=90 time=0
note_on channel=0 note=67 velocity=0 time=192
note_on channel=0 note=70 velocity=90 time=0
note_on channel=0 note=63 velocity=0 time=192
note_on channel=0 note=70 velocity=0 time=0
note_on channel=0 note=70 velocity=90 time=0
note_on channel=0 note=73 velocity=90 time=0
note_on channel=0 note=73 velocity=0 time=192
note_on channel=0 note=72 velocity=90 time=0
note_on channel=0 note=70 velocity=0 time=192
note_on channel=0 note=72 velocity=0 time=0
note_on channel=0 note=69 velocity=90 time=0
note_on channel=0 note=72 velocity=90 time=192
note_on channel=0 note=69 velocity=0 time=192
note_on channel=0 note=72 velocity=0 time=0
note_on channel=0 note=75 velocity=90 time=0
note_on channel=0 note=72 velocity=90 time=0
note_on channel=0 note=75 velocity=0 time=192
note_on channel=0 note=74 velocity=90 time=0
note_on channel=0 note=72 velocity=0 time=192
note_on channel=0 note=74 velocity=0 time=0
note_on channel=0 note=70 velocity=90 time=0
note_on channel=0 note=74 velocity=90 time=192
note_on channel=0 note=70 velocity=0 time=192
note_on channel=0 note=74 velocity=0 time=0
note_on channel=0 note=77 velocity=90 time=0
note_on channel=0 note=73 velocity=90 time=0
note_on channel=0 note=77 velocity=0 time=192
note_on channel=0 note=76 velocity=90 time=0
note_on channel=0 note=73 velocity=0 time=192
note_on channel=0 note=72 velocity=90 time=0
note_on channel=0 note=76 velocity=0 time=192
note_on channel=0 note=72 velocity=0 time=0
note_on channel=0 note=72 velocity=90 time=0
note_on channel=0 note=65 velocity=90 time=0
note_on channel=0 note=72 velocity=0 time=192
note_on channel=0 note=65 velocity=0 time=0
note_on channel=0 note=77 velocity=90 time=0
note_on channel=0 note=68 velocity=90 time=0
note_on channel=0 note=68 velocity=0 time=192
note_on channel=0 note=67 velocity=90 time=0
note_on channel=0 note=77 velocity=0 time=192
note_on channel=0 note=67 velocity=0 time=0
note_on channel=0 note=76 velocity=90 time=0
note_on channel=0 note=67 velocity=90 time=192
note_on channel=0 note=76 velocity=0 time=192
note_on channel=0 note=67 velocity=0 time=0
note_on channel=0 note=79 velocity=90 time=0
note_on channel=0 note=70 velocity=90 time=0
note_on channel=0 note=70 velocity=0 time=192
note_on channel=0 note=69 velocity=90 time=0
note_on channel=0 note=79 velocity=0 time=192
note_on channel=0 note=69 velocity=0 time=0
note_on channel=0 note=77 velocity=90 time=0
note_on channel=0 note=69 velocity=90 time=192
note_on channel=0 note=77 velocity=0 time=192
note_on channel=0 note=69 velocity=0 time=0
note_on channel=0 note=72 velocity=90 time=0
note_on channel=0 note=80 velocity=90 time=0
note_on channel=0 note=72 velocity=0 time=192
note_on channel=0 note=71 velocity=90 time=0
note_on channel=0 note=80 velocity=0 time=192
note_on channel=0 note=71 velocity=0 time=0
note_on channel=0 note=79 velocity=90 time=0
note_on channel=0 note=60 velocity=90 time=192
note_on channel=0 note=79 velocity=0 time=192
note_on channel=0 note=60 velocity=0 time=0
note_on channel=0 note=72 velocity=90 time=0
note_on channel=0 note=63 velocity=90 time=0
note_on channel=0 note=63 velocity=0 time=192
note_on channel=0 note=62 velocity=90 time=0
note_on channel=0 note=72 velocity=0 time=192
note_on channel=0 note=62 velocity=0 time=0
note_on channel=0 note=71 velocity=90 time=0
note_on channel=0 note=62 velocity=90 time=192
note_on channel=0 note=71 velocity=0 time=192
note_on channel=0 note=62 velocity=0 time=0
note_on channel=0 note=70 velocity=90 time=0
note_on channel=0 note=65 velocity=90 time=0
note_on channel=0 note=65 velocity=0 time=192
note_on channel=0 note=64 velocity=90 time=0
note_on channel=0 note=70 velocity=0 time=192
note_on channel=0 note=64 velocity=0 time=0
note_on channel=0 note=69 velocity=90 time=0
note_on channel=0 note=65 velocity=90 time=192
note_on channel=0 note=69 velocity=0 time=192
note_on channel=0 note=65 velocity=0 time=0
note_on channel=0 note=68 velocity=90 time=0
note_on channel=0 note=71 velocity=90 time=0
note_on channel=0 note=71 velocity=0 time=192
note_on channel=0 note=72 velocity=90 time=0
note_on channel=0 note=68 velocity=0 time=192
note_on channel=0 note=67 velocity=90 time=0
note_on channel=0 note=72 velocity=0 time=192
note_on channel=0 note=67 velocity=0 time=0
note_on channel=0 note=72 velocity=90 time=0
note_on channel=0 note=70 velocity=90 time=0
note_on channel=0 note=70 velocity=0 time=96
note_on channel=0 note=68 velocity=90 time=0
note_on channel=0 note=68 velocity=0 time=96
note_on channel=0 note=67 velocity=90 time=0
note_on channel=0 note=72 velocity=0 time=192
note_on channel=0 note=67 velocity=0 time=0
note_on channel=0 note=71 velocity=90 time=0
note_on channel=0 note=65 velocity=90 time=0
note_on channel=0 note=71 velocity=0 time=192
note_on channel=0 note=65 velocity=0 time=0
note_on channel=0 note=63 velocity=90 time=0
note_on channel=0 note=72 velocity=90 time=0
note_on channel=0 note=72 velocity=0 time=192
note_on channel=0 note=70 velocity=90 time=0
note_on channel=0 note=63 velocity=0 time=192
note_on channel=0 note=64 velocity=90 time=0
note_on channel=0 note=70 velocity=0 time=192
note_on channel=0 note=68 velocity=90 time=0
note_on channel=0 note=68 velocity=0 time=96
note_on channel=0 note=67 velocity=90 time=0
note_on channel=0 note=64 velocity=0 time=96
note_on channel=0 note=67 velocity=0 time=0
note_on channel=0 note=68 velocity=90 time=0
note_on channel=0 note=65 velocity=90 time=0
note_on channel=0 note=65 velocity=0 time=192
note_on channel=0 note=63 velocity=90 time=0
note_on channel=0 note=68 velocity=0 time=192
note_on channel=0 note=69 velocity=90 time=0
note_on channel=0 note=63 velocity=0 time=192
note_on channel=0 note=62 velocity=90 time=0
note_on channel=0 note=62 velocity=0 time=96
note_on channel=0 note=60 velocity=90 time=0
note_on channel=0 note=69 velocity=0 time=96
note_on channel=0 note=60 velocity=0 time=0
note_on channel=0 note=70 velocity=90 time=0
note_on channel=0 note=62 velocity=90 time=0
note_on channel=0 note=70 velocity=0 time=192
note_on channel=0 note=62 velocity=0 time=0
note_on channel=0 note=67 velocity=90 time=0
note_on channel=0 note=70 velocity=90 time=0
note_on channel=0 note=67 velocity=0 time=192
note_on channel=0 note=70 velocity=0 time=0
note_on channel=0 note=78 velocity=90 time=0
note_on channel=0 note=69 velocity=90 time=0
note_on channel=0 note=78 velocity=0 time=192
note_on channel=0 note=77 velocity=90 time=0
note_on channel=0 note=69 velocity=0 time=192
note_on channel=0 note=77 velocity=0 time=0
note_on channel=0 note=70 velocity=90 time=0
note_on channel=0 note=70 velocity=0 time=192
note_on channel=0 note=65 velocity=90 time=0
note_on channel=0 note=68 velocity=90 time=0
note_on channel=0 note=65 velocity=0 time=192
note_on channel=0 note=71 velocity=90 time=0
note_on channel=0 note=68 velocity=0 time=192
note_on channel=0 note=71 velocity=0 time=0
note_on channel=0 note=70 velocity=90 time=0
note_on channel=0 note=67 velocity=90 time=0
note_on channel=0 note=67 velocity=0 time=96
note_on channel=0 note=65 velocity=90 time=0
note_on channel=0 note=65 velocity=0 time=96
note_on channel=0 note=67 velocity=90 time=0
note_on channel=0 note=70 velocity=0 time=192
note_on channel=0 note=67 velocity=0 time=0
note_on channel=0 note=65 velocity=90 time=0
note_on channel=0 note=68 velocity=90 time=0
note_on channel=0 note=65 velocity=0 time=96
note_on channel=0 note=63 velocity=90 time=0
note_on channel=0 note=63 velocity=0 time=96
note_on channel=0 note=62 velocity=90 time=0
note_on channel=0 note=68 velocity=0 time=192
note_on channel=0 note=66 velocity=90 time=0
note_on channel=0 note=66 velocity=0 time=96
note_on channel=0 note=65 velocity=90 time=0
note_on channel=0 note=62 velocity=0 time=96
note_on channel=0 note=65 velocity=0 time=0
note_on channel=0 note=66 velocity=90 time=0
note_on channel=0 note=63 velocity=90 time=0
note_on channel=0 note=63 velocity=0 time=192
note_on channel=0 note=61 velocity=90 time=0
note_on channel=0 note=66 velocity=0 time=192
note_on channel=0 note=67 velocity=90 time=0
note_on channel=0 note=61 velocity=0 time=192
note_on channel=0 note=60 velocity=90 time=0
note_on channel=0 note=60 velocity=0 time=96
note_on channel=0 note=58 velocity=90 time=0
note_on channel=0 note=67 velocity=0 time=96
note_on channel=0 note=58 velocity=0 time=0
note_on channel=0 note=68 velocity=90 time=0
note_on channel=0 note=60 velocity=90 time=0
note_on channel=0 note=68 velocity=0 time=192
note_on channel=0 note=60 velocity=0 time=0
note_on channel=0 note=65 velocity=90 time=0
note_on channel=0 note=68 velocity=90 time=0
note_on channel=0 note=65 velocity=0 time=192
note_on channel=0 note=68 velocity=0 time=0
note_on channel=0 note=76 velocity=90 time=0
note_on channel=0 note=67 velocity=90 time=0
note_on channel=0 note=76 velocity=0 time=192
note_on channel=0 note=75 velocity=90 time=0
note_on channel=0 note=67 velocity=0 time=192
note_on channel=0 note=75 velocity=0 time=0
note_on channel=0 note=68 velocity=90 time=0
note_on channel=0 note=68 velocity=0 time=192
note_on channel=0 note=63 velocity=90 time=0
note_on channel=0 note=66 velocity=90 time=0
note_on channel=0 note=63 velocity=0 time=192
note_on channel=0 note=69 velocity=90 time=0
note_on channel=0 note=66 velocity=0 time=192
note_on channel=0 note=69 velocity=0 time=0
note_on channel=0 note=68 velocity=90 time=0
note_on channel=0 note=65 velocity=90 time=0
note_on channel=0 note=65 velocity=0 time=96
note_on channel=0 note=63 velocity=90 time=0
note_on channel=0 note=63 velocity=0 time=96
note_on channel=0 note=65 velocity=90 time=0
note_on channel=0 note=68 velocity=0 time=192
note_on channel=0 note=68 velocity=90 time=0
note_on channel=0 note=65 velocity=0 time=192
note_on channel=0 note=68 velocity=0 time=0
note_on channel=0 note=73 velocity=90 time=0
note_on channel=0 note=67 velocity=90 time=192
note_on channel=0 note=67 velocity=0 time=96
note_on channel=0 note=68 velocity=90 time=0
note_on channel=0 note=68 velocity=0 time=48
note_on channel=0 note=70 velocity=90 time=0
note_on channel=0 note=73 velocity=0 time=48
note_on channel=0 note=70 velocity=0 time=0
note_on channel=0 note=72 velocity=90 time=0
note_on channel=0 note=70 velocity=90 time=0
note_on channel=0 note=70 velocity=0 time=96
note_on channel=0 note=67 velocity=90 time=0
note_on channel=0 note=67 velocity=0 time=96
note_on channel=0 note=68 velocity=90 time=0
note_on channel=0 note=72 velocity=0 time=192
note_on channel=0 note=68 velocity=0 time=0
note_on channel=0 note=71 velocity=90 time=0
note_on channel=0 note=68 velocity=90 time=192
note_on channel=0 note=68 velocity=0 time=96
note_on channel=0 note=65 velocity=90 time=0
note_on channel=0 note=71 velocity=0 time=96
note_on channel=0 note=65 velocity=0 time=0
note_on channel=0 note=70 velocity=90 time=0
note_on channel=0 note=62 velocity=90 time=0
note_on channel=0 note=62 velocity=0 time=96
note_on channel=0 note=60 velocity=90 time=0
note_on channel=0 note=60 velocity=0 time=96
note_on channel=0 note=61 velocity=90 time=0
note_on channel=0 note=70 velocity=0 time=192
note_on channel=0 note=61 velocity=0 time=0
note_on channel=0 note=69 velocity=90 time=0
note_on channel=0 note=63 velocity=90 time=192
note_on channel=0 note=63 velocity=0 time=96
note_on channel=0 note=65 velocity=90 time=0
note_on channel=0 note=65 velocity=0 time=48
note_on channel=0 note=66 velocity=90 time=0
note_on channel=0 note=69 velocity=0 time=48
note_on channel=0 note=66 velocity=0 time=0
note_on channel=0 note=68 velocity=90 time=0
note_on channel=0 note=65 velocity=90 time=0
note_on channel=0 note=68 velocity=0 time=192
note_on channel=0 note=73 velocity=90 time=0
note_on channel=0 note=65 velocity=0 time=96
note_on channel=0 note=66 velocity=90 time=0
note_on channel=0 note=66 velocity=0 time=96
note_on channel=0 note=65 velocity=90 time=0
note_on channel=0 note=73 velocity=0 time=192
note_on channel=0 note=65 velocity=0 time=0
note_on channel=0 note=72 velocity=90 time=0
note_on channel=0 note=63 velocity=90 time=0
note_on channel=0 note=72 velocity=0 time=192
note_on channel=0 note=63 velocity=0 time=0
note_on channel=0 note=61 velocity=90 time=0
note_on channel=0 note=73 velocity=90 time=0
note_on channel=0 note=73 velocity=0 time=192
note_on channel=0 note=68 velocity=90 time=0
note_on channel=0 note=61 velocity=0 time=192
note_on channel=0 note=68 velocity=0 time=0
note_on channel=0 note=71 velocity=90 time=0
note_on channel=0 note=68 velocity=90 time=0
note_on channel=0 note=71 velocity=0 time=192
note_on channel=0 note=70 velocity=90 time=0
note_on channel=0 note=68 velocity=0 time=192
note_on channel=0 note=70 velocity=0 time=0
note_on channel=0 note=67 velocity=90 time=0
note_on channel=0 note=70 velocity=90 time=192
note_on channel=0 note=67 velocity=0 time=192
note_on channel=0 note=70 velocity=0 time=0
note_on channel=0 note=73 velocity=90 time=0
note_on channel=0 note=66 velocity=90 time=0
note_on channel=0 note=73 velocity=0 time=192
note_on channel=0 note=72 velocity=90 time=0
note_on channel=0 note=66 velocity=0 time=192
note_on channel=0 note=72 velocity=0 time=0
note_on channel=0 note=65 velocity=90 time=0
note_on channel=0 note=73 velocity=90 time=192
note_on channel=0 note=65 velocity=0 time=192
note_on channel=0 note=73 velocity=0 time=0
note_on channel=0 note=79 velocity=90 time=0
note_on channel=0 note=64 velocity=90 time=0
note_on channel=0 note=79 velocity=0 time=192
note_on channel=0 note=80 velocity=90 time=0
note_on channel=0 note=64 velocity=0 time=192
note_on channel=0 note=63 velocity=90 time=0
note_on channel=0 note=80 velocity=0 time=192
note_on channel=0 note=63 velocity=0 time=0
note_on channel=0 note=79 velocity=90 time=0
note_on channel=0 note=68 velocity=90 time=0
note_on channel=0 note=79 velocity=0 time=96
note_on channel=0 note=77 velocity=90 time=0
note_on channel=0 note=77 velocity=0 time=96
note_on channel=0 note=75 velocity=90 time=0
note_on channel=0 note=68 velocity=0 time=192
note_on channel=0 note=75 velocity=0 time=0
note_on channel=0 note=73 velocity=90 time=0
note_on channel=0 note=67 velocity=90 time=0
note_on channel=0 note=73 velocity=0 time=192
note_on channel=0 note=67 velocity=0 time=0
note_on channel=0 note=72 velocity=90 time=0
note_on channel=0 note=68 velocity=90 time=0
note_on channel=0 note=68 velocity=0 time=192
note_on channel=0 note=63 velocity=90 time=0
note_on channel=0 note=72 velocity=0 time=192
note_on channel=0 note=63 velocity=0 time=0
note_on channel=0 note=66 velocity=90 time=0
note_on channel=0 note=75 velocity=90 time=0
note_on channel=0 note=66 velocity=0 time=192
note_on channel=0 note=65 velocity=90 time=0
note_on channel=0 note=75 velocity=0 time=192
note_on channel=0 note=65 velocity=0 time=0
note_on channel=0 note=74 velocity=90 time=0
note_on channel=0 note=65 velocity=90 time=192
note_on channel=0 note=74 velocity=0 time=192
note_on channel=0 note=65 velocity=0 time=0
note_on channel=0 note=77 velocity=90 time=0
note_on channel=0 note=68 velocity=90 time=0
note_on channel=0 note=68 velocity=0 time=192
note_on channel=0 note=67 velocity=90 time=0
note_on channel=0 note=77 velocity=0 time=192
note_on channel=0 note=67 velocity=0 time=0
note_on channel=0 note=75 velocity=90 time=0
note_on channel=0 note=67 velocity=90 time=192
note_on channel=0 note=75 velocity=0 time=192
note_on channel=0 note=67 velocity=0 time=0
note_on channel=0 note=78 velocity=90 time=0
note_on channel=0 note=70 velocity=90 time=0
note_on channel=0 note=70 velocity=0 time=192
note_on channel=0 note=69 velocity=90 time=0
note_on channel=0 note=78 velocity=0 time=192
note_on channel=0 note=77 velocity=90 time=0
note_on channel=0 note=69 velocity=0 time=192
note_on channel=0 note=77 velocity=0 time=0
note_on channel=0 note=70 velocity=90 time=0
note_on channel=0 note=65 velocity=90 time=0
note_on channel=0 note=70 velocity=0 time=192
note_on channel=0 note=65 velocity=0 time=0
note_on channel=0 note=73 velocity=90 time=0
note_on channel=0 note=70 velocity=90 time=0
note_on channel=0 note=73 velocity=0 time=192
note_on channel=0 note=72 velocity=90 time=0
note_on channel=0 note=70 velocity=0 time=192
note_on channel=0 note=72 velocity=0 time=0
note_on channel=0 note=69 velocity=90 time=0
note_on channel=0 note=72 velocity=90 time=192
note_on channel=0 note=69 velocity=0 time=192
note_on channel=0 note=72 velocity=0 time=0
note_on channel=0 note=75 velocity=90 time=0
note_on channel=0 note=72 velocity=90 time=0
note_on channel=0 note=75 velocity=0 time=192
note_on channel=0 note=74 velocity=90 time=0
note_on channel=0 note=72 velocity=0 time=192
note_on channel=0 note=74 velocity=0 time=0
note_on channel=0 note=70 velocity=90 time=0
note_on channel=0 note=74 velocity=90 time=192
note_on channel=0 note=70 velocity=0 time=192
note_on channel=0 note=74 velocity=0 time=0
note_on channel=0 note=73 velocity=90 time=0
note_on channel=0 note=77 velocity=90 time=0
note_on channel=0 note=77 velocity=0 time=192
note_on channel=0 note=76 velocity=90 time=0
note_on channel=0 note=73 velocity=0 time=192
note_on channel=0 note=72 velocity=90 time=0
note_on channel=0 note=76 velocity=0 time=192
note_on channel=0 note=65 velocity=90 time=0
note_on channel=0 note=72 velocity=0 time=192
note_on channel=0 note=65 velocity=0 time=0
note_on channel=0 note=68 velocity=90 time=0
note_on channel=0 note=65 velocity=90 time=0
note_on channel=0 note=68 velocity=0 time=192
note_on channel=0 note=67 velocity=90 time=0
note_on channel=0 note=65 velocity=0 time=192
note_on channel=0 note=67 velocity=0 time=0
note_on channel=0 note=64 velocity=90 time=0
note_on channel=0 note=67 velocity=90 time=192
note_on channel=0 note=64 velocity=0 time=192
note_on channel=0 note=67 velocity=0 time=0
note_on channel=0 note=70 velocity=90 time=0
note_on channel=0 note=63 velocity=90 time=0
note_on channel=0 note=70 velocity=0 time=192
note_on channel=0 note=69 velocity=90 time=0
note_on channel=0 note=63 velocity=0 time=192
note_on channel=0 note=69 velocity=0 time=0
note_on channel=0 note=62 velocity=90 time=0
note_on channel=0 note=70 velocity=90 time=192
note_on channel=0 note=62 velocity=0 time=192
note_on channel=0 note=70 velocity=0 time=0
note_on channel=0 note=76 velocity=90 time=0
note_on channel=0 note=61 velocity=90 time=0
note_on channel=0 note=76 velocity=0 time=192
note_on channel=0 note=77 velocity=90 time=0
note_on channel=0 note=61 velocity=0 time=192
note_on channel=0 note=60 velocity=90 time=0
note_on channel=0 note=77 velocity=0 time=192
note_on channel=0 note=60 velocity=0 time=0
note_on channel=0 note=75 velocity=90 time=0
note_on channel=0 note=65 velocity=90 time=0
note_on channel=0 note=75 velocity=0 time=96
note_on channel=0 note=73 velocity=90 time=0
note_on channel=0 note=73 velocity=0 time=96
note_on channel=0 note=72 velocity=90 time=0
note_on channel=0 note=65 velocity=0 time=192
note_on channel=0 note=72 velocity=0 time=0
note_on channel=0 note=70 velocity=90 time=0
note_on channel=0 note=64 velocity=90 time=0
note_on channel=0 note=70 velocity=0 time=192
note_on channel=0 note=64 velocity=0 time=0
note_on channel=0 note=65 velocity=90 time=0
note_on channel=0 note=68 velocity=90 time=0
note_on channel=0 note=65 velocity=0 time=192
note_on channel=0 note=68 velocity=0 time=192
note_on channel=0 note=70 velocity=90 time=192
note_on channel=0 note=70 velocity=0 time=96
note_on channel=0 note=72 velocity=90 time=0
note_on channel=0 note=72 velocity=0 time=48
note_on channel=0 note=73 velocity=90 time=0
note_on channel=0 note=73 velocity=0 time=48
note_on channel=0 note=73 velocity=90 time=0
note_on channel=0 note=73 velocity=0 time=96
note_on channel=0 note=71 velocity=90 time=0
note_on channel=0 note=71 velocity=0 time=96
note_on channel=0 note=72 velocity=90 time=0
note_on channel=0 note=72 velocity=0 time=192
note_on channel=0 note=84 velocity=90 time=192
note_on channel=0 note=84 velocity=0 time=96
note_on channel=0 note=81 velocity=90 time=0
note_on channel=0 note=81 velocity=0 time=96
note_on channel=0 note=78 velocity=90 time=0
note_on channel=0 note=78 velocity=0 time=96
note_on channel=0 note=76 velocity=90 time=0
note_on channel=0 note=76 velocity=0 time=96
note_on channel=0 note=77 velocity=90 time=0
note_on channel=0 note=77 velocity=0 time=192
note_on channel=0 note=64 velocity=90 time=0
note_on channel=0 note=64 velocity=0 time=192
note_on channel=0 note=65 velocity=90 time=0
note_on channel=0 note=67 velocity=90 time=0
note_on channel=0 note=67 velocity=0 time=96
note_on channel=0 note=68 velocity=90 time=0
note_on channel=0 note=68 velocity=0 time=48
note_on channel=0 note=70 velocity=90 time=0
note_on channel=0 note=70 velocity=0 time=48
note_on channel=0 note=68 velocity=90 time=0
note_on channel=0 note=65 velocity=0 time=192
note_on channel=0 note=63 velocity=90 time=0
note_on channel=0 note=68 velocity=0 time=96
note_on channel=0 note=63 velocity=0 time=0
note_on channel=0 note=67 velocity=90 time=0
note_on channel=0 note=61 velocity=90 time=0
note_on channel=0 note=67 velocity=0 time=96
note_on channel=0 note=61 velocity=0 time=0
note_on channel=0 note=64 velocity=90 time=0
note_on channel=0 note=60 velocity=90 time=0
note_on channel=0 note=60 velocity=0 time=192
note_on channel=0 note=58 velocity=90 time=0
note_on channel=0 note=64 velocity=0 time=96
note_on channel=0 note=65 velocity=90 time=0
note_on channel=0 note=58 velocity=0 time=96
note_on channel=0 note=65 velocity=0 time=0
note_on channel=0 note=65 velocity=90 time=0
note_on channel=0 note=57 velocity=90 time=0
note_on channel=0 note=65 velocity=0 time=1536
note_on channel=0 note=57 velocity=0 time=0
MetaMessage('end_of_track', time=0)
Raita 2: down:
MetaMessage('track_name', name='down:', time=0)
note_on channel=1 note=41 velocity=90 time=0
MetaMessage('key_signature', key='Fm', time=0)
note_on channel=1 note=41 velocity=0 time=384
note_on channel=1 note=53 velocity=90 time=0
note_on channel=1 note=53 velocity=0 time=384
note_on channel=1 note=52 velocity=90 time=0
note_on channel=1 note=52 velocity=0 time=384
note_on channel=1 note=51 velocity=90 time=0
note_on channel=1 note=51 velocity=0 time=384
note_on channel=1 note=50 velocity=90 time=0
note_on channel=1 note=50 velocity=0 time=384
note_on channel=1 note=49 velocity=90 time=0
note_on channel=1 note=49 velocity=0 time=384
note_on channel=1 note=48 velocity=90 time=0
note_on channel=1 note=48 velocity=0 time=192
note_on channel=1 note=46 velocity=90 time=0
note_on channel=1 note=46 velocity=0 time=192
note_on channel=1 note=48 velocity=90 time=0
note_on channel=1 note=48 velocity=0 time=192
note_on channel=1 note=36 velocity=90 time=0
note_on channel=1 note=36 velocity=0 time=192
note_on channel=1 note=41 velocity=90 time=0
note_on channel=1 note=41 velocity=0 time=384
note_on channel=1 note=53 velocity=90 time=192
note_on channel=1 note=53 velocity=0 time=96
note_on channel=1 note=55 velocity=90 time=0
note_on channel=1 note=55 velocity=0 time=48
note_on channel=1 note=56 velocity=90 time=0
note_on channel=1 note=56 velocity=0 time=48
note_on channel=1 note=56 velocity=90 time=0
note_on channel=1 note=56 velocity=0 time=96
note_on channel=1 note=54 velocity=90 time=0
note_on channel=1 note=54 velocity=0 time=96
note_on channel=1 note=55 velocity=90 time=0
note_on channel=1 note=55 velocity=0 time=192
note_on channel=1 note=67 velocity=90 time=192
note_on channel=1 note=67 velocity=0 time=96
note_on channel=1 note=64 velocity=90 time=0
note_on channel=1 note=64 velocity=0 time=96
note_on channel=1 note=61 velocity=90 time=0
note_on channel=1 note=61 velocity=0 time=96
note_on channel=1 note=59 velocity=90 time=0
note_on channel=1 note=59 velocity=0 time=96
note_on channel=1 note=60 velocity=90 time=0
note_on channel=1 note=60 velocity=0 time=192
note_on channel=1 note=62 velocity=90 time=192
note_on channel=1 note=62 velocity=0 time=96
note_on channel=1 note=63 velocity=90 time=0
note_on channel=1 note=63 velocity=0 time=48
note_on channel=1 note=65 velocity=90 time=0
note_on channel=1 note=65 velocity=0 time=48
note_on channel=1 note=63 velocity=90 time=0
note_on channel=1 note=63 velocity=0 time=192
note_on channel=1 note=65 velocity=90 time=0
note_on channel=1 note=65 velocity=0 time=192
note_on channel=1 note=67 velocity=90 time=0
note_on channel=1 note=67 velocity=0 time=192
note_on channel=1 note=55 velocity=90 time=0
note_on channel=1 note=55 velocity=0 time=192
note_on channel=1 note=60 velocity=90 time=0
note_on channel=1 note=60 velocity=0 time=384
note_on channel=1 note=53 velocity=90 time=2880
note_on channel=1 note=53 velocity=0 time=192
note_on channel=1 note=56 velocity=90 time=0
note_on channel=1 note=56 velocity=0 time=192
note_on channel=1 note=55 velocity=90 time=0
note_on channel=1 note=55 velocity=0 time=192
note_on channel=1 note=55 velocity=90 time=192
note_on channel=1 note=55 velocity=0 time=192
note_on channel=1 note=58 velocity=90 time=0
note_on channel=1 note=58 velocity=0 time=192
note_on channel=1 note=57 velocity=90 time=0
note_on channel=1 note=57 velocity=0 time=192
note_on channel=1 note=58 velocity=90 time=192
note_on channel=1 note=58 velocity=0 time=192
note_on channel=1 note=64 velocity=90 time=0
note_on channel=1 note=64 velocity=0 time=192
note_on channel=1 note=65 velocity=90 time=0
note_on channel=1 note=65 velocity=0 time=384
note_on channel=1 note=63 velocity=90 time=0
note_on channel=1 note=63 velocity=0 time=96
note_on channel=1 note=61 velocity=90 time=0
note_on channel=1 note=61 velocity=0 time=96
note_on channel=1 note=60 velocity=90 time=0
note_on channel=1 note=60 velocity=0 time=192
note_on channel=1 note=58 velocity=90 time=0
note_on channel=1 note=58 velocity=0 time=192
note_on channel=1 note=56 velocity=90 time=0
note_on channel=1 note=56 velocity=0 time=384
note_on channel=1 note=57 velocity=90 time=0
note_on channel=1 note=57 velocity=0 time=384
note_on channel=1 note=58 velocity=90 time=0
note_on channel=1 note=58 velocity=0 time=192
note_on channel=1 note=56 velocity=90 time=0
note_on channel=1 note=56 velocity=0 time=384
note_on channel=1 note=55 velocity=90 time=0
note_on channel=1 note=55 velocity=0 time=96
note_on channel=1 note=53 velocity=90 time=0
note_on channel=1 note=53 velocity=0 time=96
note_on channel=1 note=55 velocity=90 time=0
note_on channel=1 note=55 velocity=0 time=192
note_on channel=1 note=60 velocity=90 time=0
note_on channel=1 note=60 velocity=0 time=192
note_on channel=1 note=62 velocity=90 time=0
note_on channel=1 note=62 velocity=0 time=384
note_on channel=1 note=63 velocity=90 time=0
note_on channel=1 note=63 velocity=0 time=192
note_on channel=1 note=61 velocity=90 time=0
note_on channel=1 note=61 velocity=0 time=384
note_on channel=1 note=60 velocity=90 time=0
note_on channel=1 note=60 velocity=0 time=96
note_on channel=1 note=58 velocity=90 time=0
note_on channel=1 note=58 velocity=0 time=96
note_on channel=1 note=60 velocity=90 time=0
note_on channel=1 note=60 velocity=0 time=384
note_on channel=1 note=56 velocity=90 time=0
note_on channel=1 note=56 velocity=0 time=384
note_on channel=1 note=55 velocity=90 time=0
note_on channel=1 note=55 velocity=0 time=384
note_on channel=1 note=54 velocity=90 time=0
note_on channel=1 note=54 velocity=0 time=384
note_on channel=1 note=53 velocity=90 time=0
note_on channel=1 note=53 velocity=0 time=384
note_on channel=1 note=52 velocity=90 time=0
note_on channel=1 note=52 velocity=0 time=384
note_on channel=1 note=51 velocity=90 time=0
note_on channel=1 note=51 velocity=0 time=192
note_on channel=1 note=49 velocity=90 time=0
note_on channel=1 note=49 velocity=0 time=192
note_on channel=1 note=51 velocity=90 time=0
note_on channel=1 note=51 velocity=0 time=192
note_on channel=1 note=39 velocity=90 time=0
note_on channel=1 note=39 velocity=0 time=192
note_on channel=1 note=44 velocity=90 time=0
note_on channel=1 note=44 velocity=0 time=384
note_on channel=1 note=57 velocity=90 time=192
note_on channel=1 note=57 velocity=0 time=96
note_on channel=1 note=58 velocity=90 time=0
note_on channel=1 note=58 velocity=0 time=48
note_on channel=1 note=60 velocity=90 time=0
note_on channel=1 note=60 velocity=0 time=48
note_on channel=1 note=60 velocity=90 time=0
note_on channel=1 note=60 velocity=0 time=96
note_on channel=1 note=57 velocity=90 time=0
note_on channel=1 note=57 velocity=0 time=96
note_on channel=1 note=58 velocity=90 time=0
note_on channel=1 note=58 velocity=0 time=192
note_on channel=1 note=58 velocity=90 time=192
note_on channel=1 note=58 velocity=0 time=96
note_on channel=1 note=55 velocity=90 time=0
note_on channel=1 note=55 velocity=0 time=96
note_on channel=1 note=52 velocity=90 time=0
note_on channel=1 note=52 velocity=0 time=96
note_on channel=1 note=50 velocity=90 time=0
note_on channel=1 note=50 velocity=0 time=96
note_on channel=1 note=51 velocity=90 time=0
note_on channel=1 note=51 velocity=0 time=192
note_on channel=1 note=53 velocity=90 time=192
note_on channel=1 note=53 velocity=0 time=96
note_on channel=1 note=55 velocity=90 time=0
note_on channel=1 note=55 velocity=0 time=48
note_on channel=1 note=56 velocity=90 time=0
note_on channel=1 note=56 velocity=0 time=48
note_on channel=1 note=55 velocity=90 time=0
note_on channel=1 note=55 velocity=0 time=192
note_on channel=1 note=56 velocity=90 time=0
note_on channel=1 note=56 velocity=0 time=192
note_on channel=1 note=58 velocity=90 time=0
note_on channel=1 note=58 velocity=0 time=192
note_on channel=1 note=46 velocity=90 time=0
note_on channel=1 note=46 velocity=0 time=192
note_on channel=1 note=51 velocity=90 time=0
note_on channel=1 note=51 velocity=0 time=384
note_on channel=1 note=51 velocity=90 time=192
note_on channel=1 note=51 velocity=0 time=192
note_on channel=1 note=54 velocity=90 time=0
note_on channel=1 note=54 velocity=0 time=192
note_on channel=1 note=53 velocity=90 time=0
note_on channel=1 note=53 velocity=0 time=192
note_on channel=1 note=53 velocity=90 time=192
note_on channel=1 note=53 velocity=0 time=192
note_on channel=1 note=56 velocity=90 time=0
note_on channel=1 note=56 velocity=0 time=192
note_on channel=1 note=55 velocity=90 time=0
note_on channel=1 note=55 velocity=0 time=192
note_on channel=1 note=55 velocity=90 time=192
note_on channel=1 note=55 velocity=0 time=192
note_on channel=1 note=58 velocity=90 time=0
note_on channel=1 note=58 velocity=0 time=192
note_on channel=1 note=56 velocity=90 time=0
note_on channel=1 note=56 velocity=0 time=192
note_on channel=1 note=58 velocity=90 time=192
note_on channel=1 note=58 velocity=0 time=192
note_on channel=1 note=49 velocity=90 time=0
note_on channel=1 note=49 velocity=0 time=192
note_on channel=1 note=48 velocity=90 time=0
note_on channel=1 note=48 velocity=0 time=192
note_on channel=1 note=60 velocity=90 time=192
note_on channel=1 note=60 velocity=0 time=192
note_on channel=1 note=51 velocity=90 time=0
note_on channel=1 note=51 velocity=0 time=192
note_on channel=1 note=50 velocity=90 time=0
note_on channel=1 note=50 velocity=0 time=192
note_on channel=1 note=62 velocity=90 time=192
note_on channel=1 note=62 velocity=0 time=192
note_on channel=1 note=53 velocity=90 time=0
note_on channel=1 note=53 velocity=0 time=192
note_on channel=1 note=51 velocity=90 time=0
note_on channel=1 note=51 velocity=0 time=192
note_on channel=1 note=41 velocity=90 time=192
note_on channel=1 note=41 velocity=0 time=96
note_on channel=1 note=43 velocity=90 time=0
note_on channel=1 note=43 velocity=0 time=48
note_on channel=1 note=44 velocity=90 time=0
note_on channel=1 note=44 velocity=0 time=48
note_on channel=1 note=44 velocity=90 time=0
note_on channel=1 note=44 velocity=0 time=96
note_on channel=1 note=42 velocity=90 time=0
note_on channel=1 note=42 velocity=0 time=96
note_on channel=1 note=43 velocity=90 time=0
note_on channel=1 note=43 velocity=0 time=192
note_on channel=1 note=55 velocity=90 time=192
note_on channel=1 note=55 velocity=0 time=96
note_on channel=1 note=52 velocity=90 time=0
note_on channel=1 note=52 velocity=0 time=96
note_on channel=1 note=49 velocity=90 time=0
note_on channel=1 note=49 velocity=0 time=96
note_on channel=1 note=47 velocity=90 time=0
note_on channel=1 note=47 velocity=0 time=96
note_on channel=1 note=48 velocity=90 time=0
note_on channel=1 note=48 velocity=0 time=192
note_on channel=1 note=50 velocity=90 time=192
note_on channel=1 note=50 velocity=0 time=96
note_on channel=1 note=51 velocity=90 time=0
note_on channel=1 note=51 velocity=0 time=48
note_on channel=1 note=53 velocity=90 time=0
note_on channel=1 note=53 velocity=0 time=48
note_on channel=1 note=51 velocity=90 time=0
note_on channel=1 note=51 velocity=0 time=192
note_on channel=1 note=53 velocity=90 time=0
note_on channel=1 note=53 velocity=0 time=192
note_on channel=1 note=55 velocity=90 time=0
note_on channel=1 note=55 velocity=0 time=192
note_on channel=1 note=43 velocity=90 time=0
note_on channel=1 note=43 velocity=0 time=192
note_on channel=1 note=48 velocity=90 time=0
note_on channel=1 note=48 velocity=0 time=192
note_on channel=1 note=36 velocity=90 time=0
note_on channel=1 note=36 velocity=0 time=192
note_on channel=1 note=49 velocity=90 time=0
note_on channel=1 note=49 velocity=0 time=192
note_on channel=1 note=48 velocity=90 time=0
note_on channel=1 note=48 velocity=0 time=192
note_on channel=1 note=48 velocity=90 time=192
note_on channel=1 note=48 velocity=0 time=192
note_on channel=1 note=54 velocity=90 time=0
note_on channel=1 note=54 velocity=0 time=192
note_on channel=1 note=53 velocity=90 time=0
note_on channel=1 note=53 velocity=0 time=384
note_on channel=1 note=51 velocity=90 time=0
note_on channel=1 note=51 velocity=0 time=384
note_on channel=1 note=49 velocity=90 time=0
note_on channel=1 note=49 velocity=0 time=96
note_on channel=1 note=48 velocity=90 time=0
note_on channel=1 note=48 velocity=0 time=96
note_on channel=1 note=49 velocity=90 time=0
note_on channel=1 note=49 velocity=0 time=384
note_on channel=1 note=50 velocity=90 time=0
note_on channel=1 note=50 velocity=0 time=384
note_on channel=1 note=51 velocity=90 time=0
note_on channel=1 note=51 velocity=0 time=192
note_on channel=1 note=46 velocity=90 time=0
note_on channel=1 note=46 velocity=0 time=192
note_on channel=1 note=59 velocity=90 time=0
note_on channel=1 note=59 velocity=0 time=192
note_on channel=1 note=58 velocity=90 time=0
note_on channel=1 note=58 velocity=0 time=192
note_on channel=1 note=46 velocity=90 time=192
note_on channel=1 note=46 velocity=0 time=192
note_on channel=1 note=52 velocity=90 time=0
note_on channel=1 note=52 velocity=0 time=192
note_on channel=1 note=51 velocity=90 time=0
note_on channel=1 note=51 velocity=0 time=384
note_on channel=1 note=49 velocity=90 time=0
note_on channel=1 note=49 velocity=0 time=384
note_on channel=1 note=47 velocity=90 time=0
note_on channel=1 note=47 velocity=0 time=96
note_on channel=1 note=46 velocity=90 time=0
note_on channel=1 note=46 velocity=0 time=96
note_on channel=1 note=47 velocity=90 time=0
note_on channel=1 note=47 velocity=0 time=384
note_on channel=1 note=48 velocity=90 time=0
note_on channel=1 note=48 velocity=0 time=384
note_on channel=1 note=49 velocity=90 time=0
note_on channel=1 note=49 velocity=0 time=192
note_on channel=1 note=49 velocity=90 time=0
note_on channel=1 note=49 velocity=0 time=192
note_on channel=1 note=53 velocity=90 time=0
note_on channel=1 note=53 velocity=0 time=192
note_on channel=1 note=51 velocity=90 time=0
note_on channel=1 note=51 velocity=0 time=192
note_on channel=1 note=51 velocity=90 time=192
note_on channel=1 note=51 velocity=0 time=192
note_on channel=1 note=54 velocity=90 time=0
note_on channel=1 note=54 velocity=0 time=192
note_on channel=1 note=53 velocity=90 time=0
note_on channel=1 note=53 velocity=0 time=192
note_on channel=1 note=54 velocity=90 time=192
note_on channel=1 note=54 velocity=0 time=192
note_on channel=1 note=60 velocity=90 time=0
note_on channel=1 note=60 velocity=0 time=192
note_on channel=1 note=61 velocity=90 time=0
note_on channel=1 note=61 velocity=0 time=384
note_on channel=1 note=60 velocity=90 time=0
note_on channel=1 note=60 velocity=0 time=96
note_on channel=1 note=58 velocity=90 time=0
note_on channel=1 note=58 velocity=0 time=96
note_on channel=1 note=56 velocity=90 time=0
note_on channel=1 note=56 velocity=0 time=192
note_on channel=1 note=54 velocity=90 time=0
note_on channel=1 note=54 velocity=0 time=192
note_on channel=1 note=53 velocity=90 time=0
note_on channel=1 note=53 velocity=0 time=384
note_on channel=1 note=50 velocity=90 time=192
note_on channel=1 note=50 velocity=0 time=96
note_on channel=1 note=51 velocity=90 time=0
note_on channel=1 note=51 velocity=0 time=48
note_on channel=1 note=53 velocity=90 time=0
note_on channel=1 note=53 velocity=0 time=48
note_on channel=1 note=53 velocity=90 time=0
note_on channel=1 note=53 velocity=0 time=96
note_on channel=1 note=50 velocity=90 time=0
note_on channel=1 note=50 velocity=0 time=96
note_on channel=1 note=51 velocity=90 time=0
note_on channel=1 note=51 velocity=0 time=192
note_on channel=1 note=51 velocity=90 time=192
note_on channel=1 note=51 velocity=0 time=96
note_on channel=1 note=48 velocity=90 time=0
note_on channel=1 note=48 velocity=0 time=96
note_on channel=1 note=45 velocity=90 time=0
note_on channel=1 note=45 velocity=0 time=96
note_on channel=1 note=43 velocity=90 time=0
note_on channel=1 note=43 velocity=0 time=96
note_on channel=1 note=44 velocity=90 time=0
note_on channel=1 note=44 velocity=0 time=192
note_on channel=1 note=58 velocity=90 time=192
note_on channel=1 note=58 velocity=0 time=96
note_on channel=1 note=60 velocity=90 time=0
note_on channel=1 note=60 velocity=0 time=48
note_on channel=1 note=61 velocity=90 time=0
note_on channel=1 note=61 velocity=0 time=48
note_on channel=1 note=60 velocity=90 time=0
note_on channel=1 note=60 velocity=0 time=192
note_on channel=1 note=61 velocity=90 time=0
note_on channel=1 note=61 velocity=0 time=192
note_on channel=1 note=63 velocity=90 time=0
note_on channel=1 note=63 velocity=0 time=192
note_on channel=1 note=51 velocity=90 time=0
note_on channel=1 note=51 velocity=0 time=192
note_on channel=1 note=56 velocity=90 time=0
note_on channel=1 note=56 velocity=0 time=384
note_on channel=1 note=56 velocity=90 time=192
note_on channel=1 note=56 velocity=0 time=192
note_on channel=1 note=59 velocity=90 time=0
note_on channel=1 note=59 velocity=0 time=192
note_on channel=1 note=58 velocity=90 time=0
note_on channel=1 note=58 velocity=0 time=192
note_on channel=1 note=58 velocity=90 time=192
note_on channel=1 note=58 velocity=0 time=192
note_on channel=1 note=61 velocity=90 time=0
note_on channel=1 note=61 velocity=0 time=192
note_on channel=1 note=60 velocity=90 time=0
note_on channel=1 note=60 velocity=0 time=192
note_on channel=1 note=60 velocity=90 time=192
note_on channel=1 note=60 velocity=0 time=192
note_on channel=1 note=63 velocity=90 time=0
note_on channel=1 note=63 velocity=0 time=192
note_on channel=1 note=61 velocity=90 time=0
note_on channel=1 note=61 velocity=0 time=192
note_on channel=1 note=63 velocity=90 time=192
note_on channel=1 note=63 velocity=0 time=192
note_on channel=1 note=54 velocity=90 time=0
note_on channel=1 note=54 velocity=0 time=192
note_on channel=1 note=53 velocity=90 time=0
note_on channel=1 note=53 velocity=0 time=192
note_on channel=1 note=65 velocity=90 time=192
note_on channel=1 note=65 velocity=0 time=192
note_on channel=1 note=56 velocity=90 time=0
note_on channel=1 note=56 velocity=0 time=192
note_on channel=1 note=55 velocity=90 time=0
note_on channel=1 note=55 velocity=0 time=192
note_on channel=1 note=67 velocity=90 time=192
note_on channel=1 note=67 velocity=0 time=192
note_on channel=1 note=58 velocity=90 time=0
note_on channel=1 note=58 velocity=0 time=192
note_on channel=1 note=56 velocity=90 time=0
note_on channel=1 note=56 velocity=0 time=192
note_on channel=1 note=58 velocity=90 time=192
note_on channel=1 note=58 velocity=0 time=96
note_on channel=1 note=60 velocity=90 time=0
note_on channel=1 note=60 velocity=0 time=48
note_on channel=1 note=61 velocity=90 time=0
note_on channel=1 note=61 velocity=0 time=48
note_on channel=1 note=61 velocity=90 time=0
note_on channel=1 note=61 velocity=0 time=96
note_on channel=1 note=59 velocity=90 time=0
note_on channel=1 note=59 velocity=0 time=96
note_on channel=1 note=60 velocity=90 time=0
note_on channel=1 note=60 velocity=0 time=192
note_on channel=1 note=60 velocity=90 time=192
note_on channel=1 note=60 velocity=0 time=96
note_on channel=1 note=57 velocity=90 time=0
note_on channel=1 note=57 velocity=0 time=96
note_on channel=1 note=54 velocity=90 time=0
note_on channel=1 note=54 velocity=0 time=96
note_on channel=1 note=52 velocity=90 time=0
note_on channel=1 note=52 velocity=0 time=96
note_on channel=1 note=53 velocity=90 time=0
note_on channel=1 note=53 velocity=0 time=192
note_on channel=1 note=55 velocity=90 time=192
note_on channel=1 note=55 velocity=0 time=96
note_on channel=1 note=56 velocity=90 time=0
note_on channel=1 note=56 velocity=0 time=48
note_on channel=1 note=58 velocity=90 time=0
note_on channel=1 note=58 velocity=0 time=48
note_on channel=1 note=56 velocity=90 time=0
note_on channel=1 note=56 velocity=0 time=192
note_on channel=1 note=58 velocity=90 time=0
note_on channel=1 note=58 velocity=0 time=192
note_on channel=1 note=60 velocity=90 time=0
note_on channel=1 note=60 velocity=0 time=192
note_on channel=1 note=48 velocity=90 time=0
note_on channel=1 note=48 velocity=0 time=192
note_on channel=1 note=41 velocity=90 time=0
note_on channel=1 note=53 velocity=90 time=192
note_on channel=1 note=41 velocity=0 time=192
note_on channel=1 note=53 velocity=0 time=0
note_on channel=1 note=56 velocity=90 time=0
note_on channel=1 note=53 velocity=90 time=0
note_on channel=1 note=56 velocity=0 time=192
note_on channel=1 note=55 velocity=90 time=0
note_on channel=1 note=53 velocity=0 time=192
note_on channel=1 note=55 velocity=0 time=0
note_on channel=1 note=52 velocity=90 time=0
note_on channel=1 note=55 velocity=90 time=192
note_on channel=1 note=52 velocity=0 time=192
note_on channel=1 note=55 velocity=0 time=0
note_on channel=1 note=51 velocity=90 time=0
note_on channel=1 note=58 velocity=90 time=0
note_on channel=1 note=58 velocity=0 time=192
note_on channel=1 note=57 velocity=90 time=0
note_on channel=1 note=51 velocity=0 time=192
note_on channel=1 note=57 velocity=0 time=0
note_on channel=1 note=50 velocity=90 time=0
note_on channel=1 note=58 velocity=90 time=192
note_on channel=1 note=50 velocity=0 time=192
note_on channel=1 note=58 velocity=0 time=0
note_on channel=1 note=49 velocity=90 time=0
note_on channel=1 note=49 velocity=0 time=384
note_on channel=1 note=48 velocity=90 time=0
note_on channel=1 note=48 velocity=0 time=192
note_on channel=1 note=46 velocity=90 time=0
note_on channel=1 note=46 velocity=0 time=192
note_on channel=1 note=48 velocity=90 time=0
note_on channel=1 note=48 velocity=0 time=192
note_on channel=1 note=36 velocity=90 time=0
note_on channel=1 note=36 velocity=0 time=192
note_on channel=1 note=41 velocity=90 time=0
note_on channel=1 note=41 velocity=0 time=1536
MetaMessage('end_of_track', time=0)
