Raita 0: control track
MetaMessage('track_name', name='control track', time=0)
MetaMessage('text', text='creator: ', time=0)
MetaMessage('text', text='GNU LilyPond 2.11.49          ', time=0)
MetaMessage('time_signature', numerator=9, denominator=8, clocks_per_click=18, notated_32nd_notes_per_beat=8, time=0)
MetaMessage('set_tempo', tempo=348837, time=0)
MetaMessage('end_of_track', time=0)
Raita 1: one
MetaMessage('track_name', name='one', time=0)
program_change channel=1 program=6 time=0
MetaMessage('instrument_name', name='harpsichord', time=0)
note_on channel=1 note=67 velocity=127 time=0
MetaMessage('key_signature', key='G', time=0)
note_off channel=1 note=67 velocity=64 time=192
note_on channel=1 note=71 velocity=127 time=0
note_off channel=1 note=71 velocity=64 time=192
note_on channel=1 note=74 velocity=127 time=0
note_off channel=1 note=74 velocity=64 time=192
note_on channel=1 note=71 velocity=127 time=0
note_off channel=1 note=71 velocity=64 time=192
note_on channel=1 note=67 velocity=127 time=0
note_off channel=1 note=67 velocity=64 time=192
note_on channel=1 note=74 velocity=127 time=0
note_off channel=1 note=74 velocity=64 time=192
note_on channel=1 note=71 velocity=127 time=0
note_off channel=1 note=71 velocity=64 time=192
note_on channel=1 note=67 velocity=127 time=0
note_off channel=1 note=67 velocity=64 time=192
note_on channel=1 note=79 velocity=127 time=0
note_off channel=1 note=79 velocity=64 time=192
note_on channel=1 note=78 velocity=127 time=0
note_off channel=1 note=78 velocity=64 time=384
note_on channel=1 note=74 velocity=127 time=0
note_off channel=1 note=74 velocity=64 time=192
note_on channel=1 note=81 velocity=127 time=0
note_off channel=1 note=81 velocity=64 time=192
note_on channel=1 note=78 velocity=127 time=0
note_off channel=1 note=78 velocity=64 time=192
note_on channel=1 note=74 velocity=127 time=0
note_off channel=1 note=74 velocity=64 time=192
note_on channel=1 note=81 velocity=127 time=0
note_off channel=1 note=81 velocity=64 time=192
note_on channel=1 note=78 velocity=127 time=0
note_off channel=1 note=78 velocity=64 time=192
note_on channel=1 note=74 velocity=127 time=0
note_off channel=1 note=74 velocity=64 time=192
note_on channel=1 note=79 velocity=127 time=0
note_off channel=1 note=79 velocity=64 time=192
note_on channel=1 note=74 velocity=127 time=0
note_off channel=1 note=74 velocity=64 time=192
note_on channel=1 note=71 velocity=127 time=0
note_off channel=1 note=71 velocity=64 time=192
note_on channel=1 note=77 velocity=127 time=0
note_off channel=1 note=77 velocity=64 time=192
note_on channel=1 note=74 velocity=127 time=0
note_off channel=1 note=74 velocity=64 time=192
note_on channel=1 note=71 velocity=127 time=0
note_off channel=1 note=71 velocity=64 time=192
note_on channel=1 note=77 velocity=127 time=0
note_off channel=1 note=77 velocity=64 time=192
note_on channel=1 note=74 velocity=127 time=0
note_off channel=1 note=74 velocity=64 time=192
note_on channel=1 note=71 velocity=127 time=0
note_off channel=1 note=71 velocity=64 time=192
note_on channel=1 note=76 velocity=127 time=0
note_off channel=1 note=76 velocity=64 time=192
note_on channel=1 note=72 velocity=127 time=0
note_off channel=1 note=72 velocity=64 time=192
note_on channel=1 note=69 velocity=127 time=0
note_off channel=1 note=69 velocity=64 time=192
note_on channel=1 note=66 velocity=127 time=0
note_off channel=1 note=66 velocity=64 time=192
note_on channel=1 note=69 velocity=127 time=0
note_off channel=1 note=69 velocity=64 time=192
note_on channel=1 note=72 velocity=127 time=0
note_off channel=1 note=72 velocity=64 time=192
note_on channel=1 note=76 velocity=127 time=0
note_off channel=1 note=76 velocity=64 time=192
note_on channel=1 note=74 velocity=127 time=0
note_off channel=1 note=74 velocity=64 time=192
note_on channel=1 note=72 velocity=127 time=0
note_off channel=1 note=72 velocity=64 time=192
note_on channel=1 note=74 velocity=127 time=0
note_off channel=1 note=74 velocity=64 time=192
note_on channel=1 note=71 velocity=127 time=0
note_off channel=1 note=71 velocity=64 time=192
note_on channel=1 note=67 velocity=127 time=0
note_off channel=1 note=67 velocity=64 time=192
note_on channel=1 note=64 velocity=127 time=0
note_off channel=1 note=64 velocity=64 time=192
note_on channel=1 note=67 velocity=127 time=0
note_off channel=1 note=67 velocity=64 time=192
note_on channel=1 note=71 velocity=127 time=0
note_off channel=1 note=71 velocity=64 time=192
note_on channel=1 note=74 velocity=127 time=0
note_off channel=1 note=74 velocity=64 time=192
note_on channel=1 note=72 velocity=127 time=0
note_off channel=1 note=72 velocity=64 time=192
note_on channel=1 note=71 velocity=127 time=0
note_off channel=1 note=71 velocity=64 time=192
note_on channel=1 note=72 velocity=127 time=0
note_off channel=1 note=72 velocity=64 time=192
note_on channel=1 note=69 velocity=127 time=0
note_off channel=1 note=69 velocity=64 time=192
note_on channel=1 note=66 velocity=127 time=0
note_off channel=1 note=66 velocity=64 time=192
note_on channel=1 note=62 velocity=127 time=0
note_off channel=1 note=62 velocity=64 time=192
note_on channel=1 note=66 velocity=127 time=0
note_off channel=1 note=66 velocity=64 time=192
note_on channel=1 note=69 velocity=127 time=0
note_off channel=1 note=69 velocity=64 time=192
note_on channel=1 note=72 velocity=127 time=0
note_off channel=1 note=72 velocity=64 time=192
note_on channel=1 note=71 velocity=127 time=0
note_off channel=1 note=71 velocity=64 time=192
note_on channel=1 note=69 velocity=127 time=0
note_off channel=1 note=69 velocity=64 time=192
note_on channel=1 note=71 velocity=127 time=0
note_off channel=1 note=71 velocity=64 time=192
note_on channel=1 note=72 velocity=127 time=0
note_off channel=1 note=72 velocity=64 time=192
note_on channel=1 note=74 velocity=127 time=0
note_off channel=1 note=74 velocity=64 time=192
note_on channel=1 note=76 velocity=127 time=0
note_off channel=1 note=76 velocity=64 time=192
note_on channel=1 note=71 velocity=127 time=0
note_off channel=1 note=71 velocity=64 time=192
note_on channel=1 note=79 velocity=127 time=0
note_off channel=1 note=79 velocity=64 time=192
note_on channel=1 note=76 velocity=127 time=0
note_off channel=1 note=76 velocity=64 time=192
note_on channel=1 note=71 velocity=127 time=0
note_off channel=1 note=71 velocity=64 time=192
note_on channel=1 note=79 velocity=127 time=0
note_off channel=1 note=79 velocity=64 time=192
note_on channel=1 note=69 velocity=127 time=0
note_off channel=1 note=69 velocity=64 time=192
note_on channel=1 note=71 velocity=127 time=0
note_off channel=1 note=71 velocity=64 time=192
note_on channel=1 note=73 velocity=127 time=0
note_off channel=1 note=73 velocity=64 time=192
note_on channel=1 note=74 velocity=127 time=0
note_off channel=1 note=74 velocity=64 time=192
note_on channel=1 note=69 velocity=127 time=0
note_off channel=1 note=69 velocity=64 time=192
note_on channel=1 note=78 velocity=127 time=0
note_off channel=1 note=78 velocity=64 time=192
note_on channel=1 note=74 velocity=127 time=0
note_off channel=1 note=74 velocity=64 time=192
note_on channel=1 note=69 velocity=127 time=0
note_off channel=1 note=69 velocity=64 time=192
note_on channel=1 note=78 velocity=127 time=0
note_off channel=1 note=78 velocity=64 time=192
note_on channel=1 note=67 velocity=127 time=0
note_off channel=1 note=67 velocity=64 time=768
note_on channel=1 note=69 velocity=127 time=0
note_off channel=1 note=69 velocity=64 time=192
note_on channel=1 note=67 velocity=127 time=0
note_off channel=1 note=67 velocity=64 time=192
note_on channel=1 note=66 velocity=127 time=0
note_off channel=1 note=66 velocity=64 time=192
note_on channel=1 note=67 velocity=127 time=0
note_off channel=1 note=67 velocity=64 time=192
note_on channel=1 note=64 velocity=127 time=0
note_off channel=1 note=64 velocity=64 time=192
note_on channel=1 note=66 velocity=127 time=0
note_off channel=1 note=66 velocity=64 time=192
note_on channel=1 note=67 velocity=127 time=0
note_off channel=1 note=67 velocity=64 time=192
note_on channel=1 note=66 velocity=127 time=0
note_off channel=1 note=66 velocity=64 time=192
note_on channel=1 note=64 velocity=127 time=0
note_off channel=1 note=64 velocity=64 time=192
note_on channel=1 note=66 velocity=127 time=0
note_off channel=1 note=66 velocity=64 time=192
note_on channel=1 note=62 velocity=127 time=0
note_off channel=1 note=62 velocity=64 time=192
note_on channel=1 note=69 velocity=127 time=0
note_off channel=1 note=69 velocity=64 time=192
note_on channel=1 note=71 velocity=127 time=0
note_off channel=1 note=71 velocity=64 time=192
note_on channel=1 note=72 velocity=127 time=0
note_off channel=1 note=72 velocity=64 time=192
note_on channel=1 note=71 velocity=127 time=0
note_off channel=1 note=71 velocity=64 time=192
note_on channel=1 note=72 velocity=127 time=0
note_off channel=1 note=72 velocity=64 time=192
note_on channel=1 note=71 velocity=127 time=0
note_off channel=1 note=71 velocity=64 time=192
note_on channel=1 note=69 velocity=127 time=0
note_off channel=1 note=69 velocity=64 time=192
note_on channel=1 note=71 velocity=127 time=0
note_off channel=1 note=71 velocity=64 time=192
note_on channel=1 note=67 velocity=127 time=0
note_off channel=1 note=67 velocity=64 time=192
note_on channel=1 note=76 velocity=127 time=0
note_off channel=1 note=76 velocity=64 time=192
note_on channel=1 note=78 velocity=127 time=0
note_off channel=1 note=78 velocity=64 time=192
note_on channel=1 note=79 velocity=127 time=0
note_off channel=1 note=79 velocity=64 time=192
note_on channel=1 note=73 velocity=127 time=0
note_off channel=1 note=73 velocity=64 time=192
note_on channel=1 note=74 velocity=127 time=0
note_off channel=1 note=74 velocity=64 time=192
note_on channel=1 note=73 velocity=127 time=0
note_off channel=1 note=73 velocity=64 time=192
note_on channel=1 note=71 velocity=127 time=0
note_off channel=1 note=71 velocity=64 time=192
note_on channel=1 note=73 velocity=127 time=0
note_off channel=1 note=73 velocity=64 time=192
note_on channel=1 note=69 velocity=127 time=0
note_off channel=1 note=69 velocity=64 time=192
note_on channel=1 note=79 velocity=127 time=0
note_off channel=1 note=79 velocity=64 time=192
note_on channel=1 note=81 velocity=127 time=0
note_off channel=1 note=81 velocity=64 time=192
note_on channel=1 note=83 velocity=127 time=0
note_off channel=1 note=83 velocity=64 time=192
note_on channel=1 note=81 velocity=127 time=0
note_off channel=1 note=81 velocity=64 time=192
note_on channel=1 note=79 velocity=127 time=0
note_off channel=1 note=79 velocity=64 time=192
note_on channel=1 note=78 velocity=127 time=0
note_off channel=1 note=78 velocity=64 time=192
note_on channel=1 note=76 velocity=127 time=0
note_off channel=1 note=76 velocity=64 time=192
note_on channel=1 note=78 velocity=127 time=0
note_off channel=1 note=78 velocity=64 time=192
note_on channel=1 note=74 velocity=127 time=0
note_off channel=1 note=74 velocity=64 time=192
note_on channel=1 note=69 velocity=127 time=0
note_off channel=1 note=69 velocity=64 time=192
note_on channel=1 note=74 velocity=127 time=0
note_off channel=1 note=74 velocity=64 time=192
note_on channel=1 note=73 velocity=127 time=0
note_off channel=1 note=73 velocity=64 time=192
note_on channel=1 note=74 velocity=127 time=0
note_off channel=1 note=74 velocity=64 time=576
note_on channel=1 note=69 velocity=127 time=1152
note_off channel=1 note=69 velocity=64 time=192
note_on channel=1 note=73 velocity=127 time=0
note_off channel=1 note=73 velocity=64 time=192
note_on channel=1 note=76 velocity=127 time=0
note_off channel=1 note=76 velocity=64 time=192
note_on channel=1 note=73 velocity=127 time=0
note_off channel=1 note=73 velocity=64 time=192
note_on channel=1 note=69 velocity=127 time=0
note_off channel=1 note=69 velocity=64 time=192
note_on channel=1 note=76 velocity=127 time=0
note_off channel=1 note=76 velocity=64 time=192
note_on channel=1 note=73 velocity=127 time=0
note_off channel=1 note=73 velocity=64 time=192
note_on channel=1 note=69 velocity=127 time=0
note_off channel=1 note=69 velocity=64 time=192
note_on channel=1 note=79 velocity=127 time=0
note_off channel=1 note=79 velocity=64 time=192
note_on channel=1 note=78 velocity=127 time=0
note_off channel=1 note=78 velocity=64 time=576
note_on channel=1 note=74 velocity=127 time=0
note_off channel=1 note=74 velocity=64 time=576
note_on channel=1 note=67 velocity=127 time=576
note_off channel=1 note=67 velocity=64 time=192
note_on channel=1 note=71 velocity=127 time=0
note_off channel=1 note=71 velocity=64 time=192
note_on channel=1 note=74 velocity=127 time=0
note_off channel=1 note=74 velocity=64 time=192
note_on channel=1 note=71 velocity=127 time=0
note_off channel=1 note=71 velocity=64 time=192
note_on channel=1 note=67 velocity=127 time=0
note_off channel=1 note=67 velocity=64 time=192
note_on channel=1 note=74 velocity=127 time=0
note_off channel=1 note=74 velocity=64 time=192
note_on channel=1 note=71 velocity=127 time=0
note_off channel=1 note=71 velocity=64 time=192
note_on channel=1 note=67 velocity=127 time=0
note_off channel=1 note=67 velocity=64 time=192
note_on channel=1 note=77 velocity=127 time=0
note_off channel=1 note=77 velocity=64 time=192
note_on channel=1 note=76 velocity=127 time=0
note_off channel=1 note=76 velocity=64 time=192
note_on channel=1 note=72 velocity=127 time=0
note_off channel=1 note=72 velocity=64 time=192
note_on channel=1 note=69 velocity=127 time=0
note_off channel=1 note=69 velocity=64 time=192
note_on channel=1 note=81 velocity=127 time=0
note_off channel=1 note=81 velocity=64 time=192
note_on channel=1 note=76 velocity=127 time=0
note_off channel=1 note=76 velocity=64 time=192
note_on channel=1 note=72 velocity=127 time=0
note_off channel=1 note=72 velocity=64 time=192
note_on channel=1 note=69 velocity=127 time=0
note_off channel=1 note=69 velocity=64 time=192
note_on channel=1 note=71 velocity=127 time=0
note_off channel=1 note=71 velocity=64 time=192
note_on channel=1 note=72 velocity=127 time=0
note_off channel=1 note=72 velocity=64 time=192
note_on channel=1 note=74 velocity=127 time=0
note_off channel=1 note=74 velocity=64 time=192
note_on channel=1 note=71 velocity=127 time=0
note_off channel=1 note=71 velocity=64 time=192
note_on channel=1 note=67 velocity=127 time=0
note_off channel=1 note=67 velocity=64 time=192
note_on channel=1 note=79 velocity=127 time=0
note_off channel=1 note=79 velocity=64 time=192
note_on channel=1 note=74 velocity=127 time=0
note_off channel=1 note=74 velocity=64 time=192
note_on channel=1 note=71 velocity=127 time=0
note_off channel=1 note=71 velocity=64 time=192
note_on channel=1 note=67 velocity=127 time=0
note_off channel=1 note=67 velocity=64 time=192
note_on channel=1 note=69 velocity=127 time=0
note_off channel=1 note=69 velocity=64 time=192
note_on channel=1 note=71 velocity=127 time=0
note_off channel=1 note=71 velocity=64 time=192
note_on channel=1 note=72 velocity=127 time=0
note_off channel=1 note=72 velocity=64 time=3456
note_on channel=1 note=71 velocity=127 time=0
note_off channel=1 note=71 velocity=64 time=3648
note_on channel=1 note=76 velocity=127 time=0
note_off channel=1 note=76 velocity=64 time=192
note_on channel=1 note=74 velocity=127 time=0
note_off channel=1 note=74 velocity=64 time=192
note_on channel=1 note=72 velocity=127 time=0
note_off channel=1 note=72 velocity=64 time=192
note_on channel=1 note=74 velocity=127 time=0
note_off channel=1 note=74 velocity=64 time=192
note_on channel=1 note=71 velocity=127 time=0
note_off channel=1 note=71 velocity=64 time=192
note_on channel=1 note=69 velocity=127 time=0
note_off channel=1 note=69 velocity=64 time=192
note_on channel=1 note=71 velocity=127 time=0
note_off channel=1 note=71 velocity=64 time=192
note_on channel=1 note=67 velocity=127 time=0
note_off channel=1 note=67 velocity=64 time=192
note_on channel=1 note=69 velocity=127 time=0
note_off channel=1 note=69 velocity=64 time=192
note_on channel=1 note=72 velocity=127 time=0
note_off channel=1 note=72 velocity=64 time=192
note_on channel=1 note=71 velocity=127 time=0
note_off channel=1 note=71 velocity=64 time=192
note_on channel=1 note=69 velocity=127 time=0
note_off channel=1 note=69 velocity=64 time=192
note_on channel=1 note=71 velocity=127 time=0
note_off channel=1 note=71 velocity=64 time=192
note_on channel=1 note=67 velocity=127 time=0
note_off channel=1 note=67 velocity=64 time=192
note_on channel=1 note=66 velocity=127 time=0
note_off channel=1 note=66 velocity=64 time=192
note_on channel=1 note=67 velocity=127 time=0
note_off channel=1 note=67 velocity=64 time=192
note_on channel=1 note=64 velocity=127 time=0
note_off channel=1 note=64 velocity=64 time=192
note_on channel=1 note=66 velocity=127 time=0
note_off channel=1 note=66 velocity=64 time=384
note_on channel=1 note=62 velocity=127 time=0
note_off channel=1 note=62 velocity=64 time=192
note_on channel=1 note=69 velocity=127 time=0
note_off channel=1 note=69 velocity=64 time=384
note_on channel=1 note=66 velocity=127 time=0
note_off channel=1 note=66 velocity=64 time=192
note_on channel=1 note=74 velocity=127 time=0
note_off channel=1 note=74 velocity=64 time=384
note_on channel=1 note=66 velocity=127 time=0
note_off channel=1 note=66 velocity=64 time=192
note_on channel=1 note=67 velocity=127 time=0
note_off channel=1 note=67 velocity=64 time=192
note_on channel=1 note=71 velocity=127 time=0
note_off channel=1 note=71 velocity=64 time=192
note_on channel=1 note=74 velocity=127 time=0
note_off channel=1 note=74 velocity=64 time=192
note_on channel=1 note=71 velocity=127 time=0
note_off channel=1 note=71 velocity=64 time=192
note_on channel=1 note=67 velocity=127 time=0
note_off channel=1 note=67 velocity=64 time=192
note_on channel=1 note=74 velocity=127 time=0
note_off channel=1 note=74 velocity=64 time=192
note_on channel=1 note=71 velocity=127 time=0
note_off channel=1 note=71 velocity=64 time=192
note_on channel=1 note=67 velocity=127 time=0
note_off channel=1 note=67 velocity=64 time=192
note_on channel=1 note=79 velocity=127 time=0
note_off channel=1 note=79 velocity=64 time=192
note_on channel=1 note=74 velocity=127 time=0
note_off channel=1 note=74 velocity=64 time=192
note_on channel=1 note=78 velocity=127 time=0
note_off channel=1 note=78 velocity=64 time=192
note_on channel=1 note=81 velocity=127 time=0
note_off channel=1 note=81 velocity=64 time=192
note_on channel=1 note=78 velocity=127 time=0
note_off channel=1 note=78 velocity=64 time=192
note_on channel=1 note=74 velocity=127 time=0
note_off channel=1 note=74 velocity=64 time=192
note_on channel=1 note=81 velocity=127 time=0
note_off channel=1 note=81 velocity=64 time=192
note_on channel=1 note=78 velocity=127 time=0
note_off channel=1 note=78 velocity=64 time=192
note_on channel=1 note=74 velocity=127 time=0
note_off channel=1 note=74 velocity=64 time=192
note_on channel=1 note=84 velocity=127 time=0
note_off channel=1 note=84 velocity=64 time=192
note_on channel=1 note=83 velocity=127 time=0
note_off channel=1 note=83 velocity=64 time=192
note_on channel=1 note=81 velocity=127 time=0
note_off channel=1 note=81 velocity=64 time=192
note_on channel=1 note=79 velocity=127 time=0
note_off channel=1 note=79 velocity=64 time=192
note_on channel=1 note=78 velocity=127 time=0
note_off channel=1 note=78 velocity=64 time=192
note_on channel=1 note=79 velocity=127 time=0
note_off channel=1 note=79 velocity=64 time=192
note_on channel=1 note=81 velocity=127 time=0
note_off channel=1 note=81 velocity=64 time=192
note_on channel=1 note=74 velocity=127 time=0
note_off channel=1 note=74 velocity=64 time=192
note_on channel=1 note=79 velocity=127 time=0
note_off channel=1 note=79 velocity=64 time=192
note_on channel=1 note=78 velocity=127 time=0
note_off channel=1 note=78 velocity=64 time=192
note_on channel=1 note=79 velocity=127 time=0
note_off channel=1 note=79 velocity=64 time=192
note_on channel=1 note=78 velocity=127 time=0
note_off channel=1 note=78 velocity=64 time=192
note_on channel=1 note=76 velocity=127 time=0
note_off channel=1 note=76 velocity=64 time=192
note_on channel=1 note=74 velocity=127 time=0
note_off channel=1 note=74 velocity=64 time=192
note_on channel=1 note=72 velocity=127 time=0
note_off channel=1 note=72 velocity=64 time=192
note_on channel=1 note=71 velocity=127 time=0
note_off channel=1 note=71 velocity=64 time=192
note_on channel=1 note=69 velocity=127 time=0
note_off channel=1 note=69 velocity=64 time=192
note_on channel=1 note=71 velocity=127 time=0
note_off channel=1 note=71 velocity=64 time=192
note_on channel=1 note=72 velocity=127 time=0
note_off channel=1 note=72 velocity=64 time=192
note_on channel=1 note=71 velocity=127 time=0
note_off channel=1 note=71 velocity=64 time=192
note_on channel=1 note=69 velocity=127 time=0
note_off channel=1 note=69 velocity=64 time=192
note_on channel=1 note=67 velocity=127 time=0
note_off channel=1 note=67 velocity=64 time=192
note_on channel=1 note=66 velocity=127 time=0
note_off channel=1 note=66 velocity=64 time=192
note_on channel=1 note=67 velocity=127 time=0
note_off channel=1 note=67 velocity=64 time=192
note_on channel=1 note=69 velocity=127 time=0
note_off channel=1 note=69 velocity=64 time=192
note_on channel=1 note=62 velocity=127 time=0
note_off channel=1 note=62 velocity=64 time=192
note_on channel=1 note=67 velocity=127 time=0
note_off channel=1 note=67 velocity=64 time=192
note_on channel=1 note=66 velocity=127 time=0
note_off channel=1 note=66 velocity=64 time=192
note_on channel=1 note=67 velocity=127 time=0
note_off channel=1 note=67 velocity=64 time=192
note_on channel=1 note=62 velocity=127 time=0
note_off channel=1 note=62 velocity=64 time=192
note_on channel=1 note=59 velocity=127 time=0
note_off channel=1 note=59 velocity=64 time=192
note_on channel=1 note=55 velocity=127 time=0
note_off channel=1 note=55 velocity=64 time=576
MetaMessage('end_of_track', time=0)
Raita 2: two
MetaMessage('track_name', name='two', time=0)
program_change channel=2 program=6 time=0
MetaMessage('instrument_name', name='harpsichord', time=0)
MetaMessage('key_signature', key='G', time=0)
note_on channel=2 note=50 velocity=127 time=1728
note_off channel=2 note=50 velocity=64 time=192
note_on channel=2 note=54 velocity=127 time=0
note_off channel=2 note=54 velocity=64 time=192
note_on channel=2 note=57 velocity=127 time=0
note_off channel=2 note=57 velocity=64 time=192
note_on channel=2 note=54 velocity=127 time=0
note_off channel=2 note=54 velocity=64 time=192
note_on channel=2 note=50 velocity=127 time=0
note_off channel=2 note=50 velocity=64 time=192
note_on channel=2 note=57 velocity=127 time=0
note_off channel=2 note=57 velocity=64 time=192
note_on channel=2 note=54 velocity=127 time=0
note_off channel=2 note=54 velocity=64 time=192
note_on channel=2 note=50 velocity=127 time=0
note_off channel=2 note=50 velocity=64 time=192
note_on channel=2 note=60 velocity=127 time=0
note_off channel=2 note=60 velocity=64 time=192
note_on channel=2 note=59 velocity=127 time=0
note_off channel=2 note=59 velocity=64 time=384
note_on channel=2 note=55 velocity=127 time=0
note_off channel=2 note=55 velocity=64 time=192
note_on channel=2 note=62 velocity=127 time=0
note_off channel=2 note=62 velocity=64 time=192
note_on channel=2 note=59 velocity=127 time=0
note_off channel=2 note=59 velocity=64 time=192
note_on channel=2 note=55 velocity=127 time=0
note_off channel=2 note=55 velocity=64 time=192
note_on channel=2 note=62 velocity=127 time=0
note_off channel=2 note=62 velocity=64 time=192
note_on channel=2 note=59 velocity=127 time=0
note_off channel=2 note=59 velocity=64 time=192
note_on channel=2 note=55 velocity=127 time=0
note_off channel=2 note=55 velocity=64 time=192
note_on channel=2 note=60 velocity=127 time=0
note_off channel=2 note=60 velocity=64 time=192
note_on channel=2 note=64 velocity=127 time=0
note_off channel=2 note=64 velocity=64 time=192
note_on channel=2 note=60 velocity=127 time=0
note_off channel=2 note=60 velocity=64 time=192
note_on channel=2 note=57 velocity=127 time=0
note_off channel=2 note=57 velocity=64 time=192
note_on channel=2 note=60 velocity=127 time=0
note_off channel=2 note=60 velocity=64 time=192
note_on channel=2 note=57 velocity=127 time=0
note_off channel=2 note=57 velocity=64 time=192
note_on channel=2 note=54 velocity=127 time=0
note_off channel=2 note=54 velocity=64 time=192
note_on channel=2 note=55 velocity=127 time=0
note_off channel=2 note=55 velocity=64 time=192
note_on channel=2 note=57 velocity=127 time=0
note_off channel=2 note=57 velocity=64 time=192
note_on channel=2 note=59 velocity=127 time=0
note_off channel=2 note=59 velocity=64 time=192
note_on channel=2 note=62 velocity=127 time=0
note_off channel=2 note=62 velocity=64 time=192
note_on channel=2 note=59 velocity=127 time=0
note_off channel=2 note=59 velocity=64 time=192
note_on channel=2 note=55 velocity=127 time=0
note_off channel=2 note=55 velocity=64 time=192
note_on channel=2 note=59 velocity=127 time=0
note_off channel=2 note=59 velocity=64 time=192
note_on channel=2 note=55 velocity=127 time=0
note_off channel=2 note=55 velocity=64 time=192
note_on channel=2 note=52 velocity=127 time=0
note_off channel=2 note=52 velocity=64 time=192
note_on channel=2 note=54 velocity=127 time=0
note_off channel=2 note=54 velocity=64 time=192
note_on channel=2 note=55 velocity=127 time=0
note_off channel=2 note=55 velocity=64 time=192
note_on channel=2 note=57 velocity=127 time=0
note_off channel=2 note=57 velocity=64 time=192
note_on channel=2 note=60 velocity=127 time=0
note_off channel=2 note=60 velocity=64 time=192
note_on channel=2 note=57 velocity=127 time=0
note_off channel=2 note=57 velocity=64 time=192
note_on channel=2 note=54 velocity=127 time=0
note_off channel=2 note=54 velocity=64 time=192
note_on channel=2 note=57 velocity=127 time=0
note_off channel=2 note=57 velocity=64 time=192
note_on channel=2 note=54 velocity=127 time=0
note_off channel=2 note=54 velocity=64 time=192
note_on channel=2 note=50 velocity=127 time=0
note_off channel=2 note=50 velocity=64 time=192
note_on channel=2 note=52 velocity=127 time=0
note_off channel=2 note=52 velocity=64 time=192
note_on channel=2 note=54 velocity=127 time=0
note_off channel=2 note=54 velocity=64 time=192
note_on channel=2 note=55 velocity=127 time=0
note_off channel=2 note=55 velocity=64 time=768
note_on channel=2 note=54 velocity=127 time=0
note_off channel=2 note=54 velocity=64 time=192
note_on channel=2 note=52 velocity=127 time=0
note_off channel=2 note=52 velocity=64 time=192
note_on channel=2 note=50 velocity=127 time=0
note_off channel=2 note=50 velocity=64 time=192
note_on channel=2 note=52 velocity=127 time=0
note_off channel=2 note=52 velocity=64 time=192
note_on channel=2 note=49 velocity=127 time=0
note_off channel=2 note=49 velocity=64 time=192
note_on channel=2 note=54 velocity=127 time=0
note_off channel=2 note=54 velocity=64 time=768
note_on channel=2 note=52 velocity=127 time=0
note_off channel=2 note=52 velocity=64 time=192
note_on channel=2 note=50 velocity=127 time=0
note_off channel=2 note=50 velocity=64 time=192
note_on channel=2 note=49 velocity=127 time=0
note_off channel=2 note=49 velocity=64 time=192
note_on channel=2 note=50 velocity=127 time=0
note_off channel=2 note=50 velocity=64 time=192
note_on channel=2 note=47 velocity=127 time=0
note_off channel=2 note=47 velocity=64 time=192
note_on channel=2 note=52 velocity=127 time=0
note_off channel=2 note=52 velocity=64 time=192
note_on channel=2 note=54 velocity=127 time=0
note_off channel=2 note=54 velocity=64 time=192
note_on channel=2 note=55 velocity=127 time=0
note_off channel=2 note=55 velocity=64 time=192
note_on channel=2 note=57 velocity=127 time=0
note_off channel=2 note=57 velocity=64 time=192
note_on channel=2 note=52 velocity=127 time=0
note_off channel=2 note=52 velocity=64 time=192
note_on channel=2 note=61 velocity=127 time=0
note_off channel=2 note=61 velocity=64 time=192
note_on channel=2 note=57 velocity=127 time=0
note_off channel=2 note=57 velocity=64 time=192
note_on channel=2 note=52 velocity=127 time=0
note_off channel=2 note=52 velocity=64 time=192
note_on channel=2 note=61 velocity=127 time=0
note_off channel=2 note=61 velocity=64 time=192
note_on channel=2 note=62 velocity=127 time=0
note_off channel=2 note=62 velocity=64 time=768
note_on channel=2 note=50 velocity=127 time=0
note_off channel=2 note=50 velocity=64 time=192
note_on channel=2 note=52 velocity=127 time=0
note_off channel=2 note=52 velocity=64 time=192
note_on channel=2 note=54 velocity=127 time=0
note_off channel=2 note=54 velocity=64 time=192
note_on channel=2 note=52 velocity=127 time=0
note_off channel=2 note=52 velocity=64 time=192
note_on channel=2 note=50 velocity=127 time=0
note_off channel=2 note=50 velocity=64 time=192
note_on channel=2 note=55 velocity=127 time=0
note_off channel=2 note=55 velocity=64 time=768
note_on channel=2 note=52 velocity=127 time=0
note_off channel=2 note=52 velocity=64 time=192
note_on channel=2 note=54 velocity=127 time=0
note_off channel=2 note=54 velocity=64 time=192
note_on channel=2 note=55 velocity=127 time=0
note_off channel=2 note=55 velocity=64 time=192
note_on channel=2 note=54 velocity=127 time=0
note_off channel=2 note=54 velocity=64 time=192
note_on channel=2 note=52 velocity=127 time=0
note_off channel=2 note=52 velocity=64 time=192
note_on channel=2 note=57 velocity=127 time=0
note_off channel=2 note=57 velocity=64 time=768
note_on channel=2 note=55 velocity=127 time=0
note_off channel=2 note=55 velocity=64 time=192
note_on channel=2 note=54 velocity=127 time=0
note_off channel=2 note=54 velocity=64 time=192
note_on channel=2 note=52 velocity=127 time=0
note_off channel=2 note=52 velocity=64 time=192
note_on channel=2 note=50 velocity=127 time=0
note_off channel=2 note=50 velocity=64 time=192
note_on channel=2 note=49 velocity=127 time=0
note_off channel=2 note=49 velocity=64 time=192
note_on channel=2 note=50 velocity=127 time=0
note_off channel=2 note=50 velocity=64 time=192
note_on channel=2 note=52 velocity=127 time=0
note_off channel=2 note=52 velocity=64 time=192
note_on channel=2 note=54 velocity=127 time=0
note_off channel=2 note=54 velocity=64 time=192
note_on channel=2 note=55 velocity=127 time=0
note_off channel=2 note=55 velocity=64 time=192
note_on channel=2 note=57 velocity=127 time=0
note_off channel=2 note=57 velocity=64 time=192
note_on channel=2 note=59 velocity=127 time=0
note_off channel=2 note=59 velocity=64 time=192
note_on channel=2 note=57 velocity=127 time=0
note_off channel=2 note=57 velocity=64 time=384
note_on channel=2 note=45 velocity=127 time=0
note_off channel=2 note=45 velocity=64 time=192
note_on channel=2 note=50 velocity=127 time=0
note_off channel=2 note=50 velocity=64 time=192
note_on channel=2 note=54 velocity=127 time=0
note_off channel=2 note=54 velocity=64 time=192
note_on channel=2 note=57 velocity=127 time=0
note_off channel=2 note=57 velocity=64 time=192
note_on channel=2 note=54 velocity=127 time=0
note_off channel=2 note=54 velocity=64 time=192
note_on channel=2 note=50 velocity=127 time=0
note_off channel=2 note=50 velocity=64 time=192
note_on channel=2 note=57 velocity=127 time=0
note_off channel=2 note=57 velocity=64 time=192
note_on channel=2 note=54 velocity=127 time=0
note_off channel=2 note=54 velocity=64 time=192
note_on channel=2 note=50 velocity=127 time=0
note_off channel=2 note=50 velocity=64 time=192
note_on channel=2 note=62 velocity=127 time=0
note_off channel=2 note=62 velocity=64 time=192
note_on channel=2 note=61 velocity=127 time=0
note_off channel=2 note=61 velocity=64 time=576
note_on channel=2 note=57 velocity=127 time=0
note_off channel=2 note=57 velocity=64 time=576
note_on channel=2 note=50 velocity=127 time=576
note_off channel=2 note=50 velocity=64 time=192
note_on channel=2 note=54 velocity=127 time=0
note_off channel=2 note=54 velocity=64 time=192
note_on channel=2 note=57 velocity=127 time=0
note_off channel=2 note=57 velocity=64 time=192
note_on channel=2 note=54 velocity=127 time=0
note_off channel=2 note=54 velocity=64 time=192
note_on channel=2 note=50 velocity=127 time=0
note_off channel=2 note=50 velocity=64 time=192
note_on channel=2 note=57 velocity=127 time=0
note_off channel=2 note=57 velocity=64 time=192
note_on channel=2 note=54 velocity=127 time=0
note_off channel=2 note=54 velocity=64 time=192
note_on channel=2 note=50 velocity=127 time=0
note_off channel=2 note=50 velocity=64 time=192
note_on channel=2 note=60 velocity=127 time=0
note_off channel=2 note=60 velocity=64 time=192
note_on channel=2 note=59 velocity=127 time=0
note_off channel=2 note=59 velocity=64 time=576
note_on channel=2 note=55 velocity=127 time=0
note_off channel=2 note=55 velocity=64 time=576
note_on channel=2 note=48 velocity=127 time=576
note_off channel=2 note=48 velocity=64 time=768
note_on channel=2 note=50 velocity=127 time=0
note_off channel=2 note=50 velocity=64 time=192
note_on channel=2 note=52 velocity=127 time=0
note_off channel=2 note=52 velocity=64 time=192
note_on channel=2 note=42 velocity=127 time=0
note_off channel=2 note=42 velocity=64 time=192
note_on channel=2 note=43 velocity=127 time=0
note_off channel=2 note=43 velocity=64 time=192
note_on channel=2 note=45 velocity=127 time=0
note_off channel=2 note=45 velocity=64 time=192
note_on channel=2 note=47 velocity=127 time=0
note_off channel=2 note=47 velocity=64 time=768
note_on channel=2 note=48 velocity=127 time=0
note_off channel=2 note=48 velocity=64 time=192
note_on channel=2 note=50 velocity=127 time=0
note_off channel=2 note=50 velocity=64 time=192
note_on channel=2 note=40 velocity=127 time=0
note_off channel=2 note=40 velocity=64 time=192
note_on channel=2 note=42 velocity=127 time=0
note_off channel=2 note=42 velocity=64 time=192
note_on channel=2 note=43 velocity=127 time=0
note_off channel=2 note=43 velocity=64 time=192
note_on channel=2 note=45 velocity=127 time=0
note_off channel=2 note=45 velocity=64 time=192
note_on channel=2 note=48 velocity=127 time=0
note_off channel=2 note=48 velocity=64 time=192
note_on channel=2 note=52 velocity=127 time=0
note_off channel=2 note=52 velocity=64 time=192
note_on channel=2 note=57 velocity=127 time=0
note_off channel=2 note=57 velocity=64 time=192
note_on channel=2 note=52 velocity=127 time=0
note_off channel=2 note=52 velocity=64 time=192
note_on channel=2 note=48 velocity=127 time=0
note_off channel=2 note=48 velocity=64 time=192
note_on channel=2 note=45 velocity=127 time=0
note_off channel=2 note=45 velocity=64 time=192
note_on channel=2 note=47 velocity=127 time=0
note_off channel=2 note=47 velocity=64 time=192
note_on channel=2 note=48 velocity=127 time=0
note_off channel=2 note=48 velocity=64 time=192
note_on channel=2 note=50 velocity=127 time=0
note_off channel=2 note=50 velocity=64 time=192
note_on channel=2 note=54 velocity=127 time=0
note_off channel=2 note=54 velocity=64 time=192
note_on channel=2 note=57 velocity=127 time=0
note_off channel=2 note=57 velocity=64 time=192
note_on channel=2 note=62 velocity=127 time=0
note_off channel=2 note=62 velocity=64 time=192
note_on channel=2 note=57 velocity=127 time=0
note_off channel=2 note=57 velocity=64 time=192
note_on channel=2 note=54 velocity=127 time=0
note_off channel=2 note=54 velocity=64 time=192
note_on channel=2 note=50 velocity=127 time=0
note_off channel=2 note=50 velocity=64 time=192
note_on channel=2 note=52 velocity=127 time=0
note_off channel=2 note=52 velocity=64 time=192
note_on channel=2 note=54 velocity=127 time=0
note_off channel=2 note=54 velocity=64 time=192
note_on channel=2 note=55 velocity=127 time=0
note_off channel=2 note=55 velocity=64 time=192
note_on channel=2 note=59 velocity=127 time=0
note_off channel=2 note=59 velocity=64 time=192
note_on channel=2 note=62 velocity=127 time=0
note_off channel=2 note=62 velocity=64 time=192
note_on channel=2 note=67 velocity=127 time=0
note_off channel=2 note=67 velocity=64 time=192
note_on channel=2 note=62 velocity=127 time=0
note_off channel=2 note=62 velocity=64 time=192
note_on channel=2 note=59 velocity=127 time=0
note_off channel=2 note=59 velocity=64 time=192
note_on channel=2 note=55 velocity=127 time=0
note_off channel=2 note=55 velocity=64 time=192
note_on channel=2 note=57 velocity=127 time=0
note_off channel=2 note=57 velocity=64 time=192
note_on channel=2 note=59 velocity=127 time=0
note_off channel=2 note=59 velocity=64 time=192
note_on channel=2 note=52 velocity=127 time=0
note_off channel=2 note=52 velocity=64 time=192
note_on channel=2 note=55 velocity=127 time=0
note_off channel=2 note=55 velocity=64 time=192
note_on channel=2 note=59 velocity=127 time=0
note_off channel=2 note=59 velocity=64 time=192
note_on channel=2 note=64 velocity=127 time=0
note_off channel=2 note=64 velocity=64 time=192
note_on channel=2 note=59 velocity=127 time=0
note_off channel=2 note=59 velocity=64 time=192
note_on channel=2 note=55 velocity=127 time=0
note_off channel=2 note=55 velocity=64 time=192
note_on channel=2 note=52 velocity=127 time=0
note_off channel=2 note=52 velocity=64 time=192
note_on channel=2 note=54 velocity=127 time=0
note_off channel=2 note=54 velocity=64 time=192
note_on channel=2 note=55 velocity=127 time=0
note_off channel=2 note=55 velocity=64 time=192
note_on channel=2 note=48 velocity=127 time=0
note_off channel=2 note=48 velocity=64 time=3648
note_on channel=2 note=50 velocity=127 time=0
note_off channel=2 note=50 velocity=64 time=192
note_on channel=2 note=54 velocity=127 time=0
note_off channel=2 note=54 velocity=64 time=192
note_on channel=2 note=57 velocity=127 time=0
note_off channel=2 note=57 velocity=64 time=192
note_on channel=2 note=54 velocity=127 time=0
note_off channel=2 note=54 velocity=64 time=192
note_on channel=2 note=50 velocity=127 time=0
note_off channel=2 note=50 velocity=64 time=192
note_on channel=2 note=48 velocity=127 time=0
note_off channel=2 note=48 velocity=64 time=192
note_on channel=2 note=47 velocity=127 time=0
note_off channel=2 note=47 velocity=64 time=192
note_on channel=2 note=45 velocity=127 time=0
note_off channel=2 note=45 velocity=64 time=192
note_on channel=2 note=47 velocity=127 time=0
note_off channel=2 note=47 velocity=64 time=192
note_on channel=2 note=43 velocity=127 time=0
note_off channel=2 note=43 velocity=64 time=192
note_on channel=2 note=47 velocity=127 time=0
note_off channel=2 note=47 velocity=64 time=192
note_on channel=2 note=50 velocity=127 time=0
note_off channel=2 note=50 velocity=64 time=192
note_on channel=2 note=47 velocity=127 time=0
note_off channel=2 note=47 velocity=64 time=192
note_on channel=2 note=43 velocity=127 time=0
note_off channel=2 note=43 velocity=64 time=192
note_on channel=2 note=50 velocity=127 time=0
note_off channel=2 note=50 velocity=64 time=192
note_on channel=2 note=47 velocity=127 time=0
note_off channel=2 note=47 velocity=64 time=192
note_on channel=2 note=43 velocity=127 time=0
note_off channel=2 note=43 velocity=64 time=192
note_on channel=2 note=42 velocity=127 time=0
note_off channel=2 note=42 velocity=64 time=192
note_on channel=2 note=38 velocity=127 time=0
note_off channel=2 note=38 velocity=64 time=192
note_on channel=2 note=42 velocity=127 time=0
note_off channel=2 note=42 velocity=64 time=192
note_on channel=2 note=45 velocity=127 time=0
note_off channel=2 note=45 velocity=64 time=192
note_on channel=2 note=42 velocity=127 time=0
note_off channel=2 note=42 velocity=64 time=192
note_on channel=2 note=38 velocity=127 time=0
note_off channel=2 note=38 velocity=64 time=192
note_on channel=2 note=45 velocity=127 time=0
note_off channel=2 note=45 velocity=64 time=192
note_on channel=2 note=42 velocity=127 time=0
note_off channel=2 note=42 velocity=64 time=192
note_on channel=2 note=38 velocity=127 time=0
note_off channel=2 note=38 velocity=64 time=192
note_on channel=2 note=43 velocity=127 time=0
note_off channel=2 note=43 velocity=64 time=192
note_on channel=2 note=45 velocity=127 time=0
note_off channel=2 note=45 velocity=64 time=192
note_on channel=2 note=47 velocity=127 time=0
note_off channel=2 note=47 velocity=64 time=192
note_on channel=2 note=45 velocity=127 time=0
note_off channel=2 note=45 velocity=64 time=192
note_on channel=2 note=47 velocity=127 time=0
note_off channel=2 note=47 velocity=64 time=192
note_on channel=2 note=48 velocity=127 time=0
note_off channel=2 note=48 velocity=64 time=192
note_on channel=2 note=47 velocity=127 time=0
note_off channel=2 note=47 velocity=64 time=192
note_on channel=2 note=48 velocity=127 time=0
note_off channel=2 note=48 velocity=64 time=192
note_on channel=2 note=50 velocity=127 time=0
note_off channel=2 note=50 velocity=64 time=192
note_on channel=2 note=40 velocity=127 time=0
note_off channel=2 note=40 velocity=64 time=960
note_on channel=2 note=52 velocity=127 time=0
note_off channel=2 note=52 velocity=64 time=192
note_on channel=2 note=54 velocity=127 time=0
note_off channel=2 note=54 velocity=64 time=192
note_on channel=2 note=52 velocity=127 time=0
note_off channel=2 note=52 velocity=64 time=192
note_on channel=2 note=50 velocity=127 time=0
note_off channel=2 note=50 velocity=64 time=192
note_on channel=2 note=55 velocity=127 time=0
note_off channel=2 note=55 velocity=64 time=384
note_on channel=2 note=47 velocity=127 time=0
note_off channel=2 note=47 velocity=64 time=192
note_on channel=2 note=52 velocity=127 time=0
note_off channel=2 note=52 velocity=64 time=192
note_on channel=2 note=50 velocity=127 time=0
note_off channel=2 note=50 velocity=64 time=192
note_on channel=2 note=48 velocity=127 time=0
note_off channel=2 note=48 velocity=64 time=192
note_on channel=2 note=50 velocity=127 time=0
note_off channel=2 note=50 velocity=64 time=384
note_on channel=2 note=38 velocity=127 time=0
note_off channel=2 note=38 velocity=64 time=192
note_on channel=2 note=43 velocity=127 time=0
note_off channel=2 note=43 velocity=64 time=768
note_on channel=2 note=47 velocity=127 time=0
note_off channel=2 note=47 velocity=64 time=192
note_on channel=2 note=50 velocity=127 time=0
note_off channel=2 note=50 velocity=64 time=192
note_on channel=2 note=55 velocity=127 time=0
note_off channel=2 note=55 velocity=64 time=576
MetaMessage('end_of_track', time=0)
